<?xml version="1.0" encoding="UTF-8" standalone="no"?><!DOCTYPE svg PUBLIC "-//W3C//DTD SVG 1.1//EN" "http://www.w3.org/Graphics/SVG/1.1/DTD/svg11.dtd"><svg width="100%" height="100%" viewBox="0 0 570 363" version="1.1" xmlns="http://www.w3.org/2000/svg" xmlns:xlink="http://www.w3.org/1999/xlink" xml:space="preserve" style="fill-rule:evenodd;clip-rule:evenodd;stroke-linejoin:round;stroke-miterlimit:1.41421;"><g id="brand"><g id="first.-line"><path d="M8.155,6.46l0,69.516l-5.269,2.81l0,3.396l22.353,0l0,-3.396l-5.273,-2.81l0,-32.317l18.983,0l0,32.317l-5.156,2.81l0,3.396l22.237,0l0,-3.396l-5.269,-2.81l0,-69.516l4.449,-3.054l0,-3.406l-20.713,0l0,3.406l4.452,3.054l0,30.54l-18.983,0l0,-30.54l4.453,-3.054l0,-3.406l-20.713,0l0,3.406l4.449,3.054Z" style="fill:#246c5b;fill-rule:nonzero;"/><path d="M83.194,6.448l4.45,-3.048l0,-3.4l-20.711,0l0,3.4l4.45,3.048c0,22.978 0,45.839 0,68.817l-5.269,3.517l0,3.4c6.789,0 15.56,0 22.232,0l0,-3.4l-5.152,-3.517c0,-22.978 0,-45.839 0,-68.817Z" style="fill:#246c5b;fill-rule:nonzero;"/><path d="M111.062,65.336l0.936,-65.102l-11.577,0l1.638,65.102l9.003,0Zm-10.524,11.825c0,7.728 11.694,7.728 11.694,0c0,-7.727 -11.694,-7.727 -11.694,0Z" style="fill:#246c5b;fill-rule:nonzero;"/><path d="M138.519,35.35l2.752,-1.884l0,-2.103l-12.807,0l0,2.103l2.751,1.884c0,14.21 0,28.347 0,42.557l-3.258,2.175l0,2.102c4.198,0 9.622,0 13.748,0l0,-2.102l-3.186,-2.175c0,-14.21 0,-28.347 0,-42.557Z" style="fill:#30312c;fill-rule:nonzero;"/><path d="M153.797,31.363l-5.928,0l0.217,14.256l4.988,0l0.723,-14.256Z" style="fill:#30312c;fill-rule:nonzero;"/><path d="M167.917,78.052c0,-10.585 0,-21.097 0,-31.682l-0.361,-9.352l0.361,0c2.68,14.355 4.998,27.984 7.388,42.412c0.218,1.377 0.942,2.029 2.463,2.029l6.012,0l7.968,-44.949l0.29,0l-0.217,7.305c0,11.366 0,22.732 0,34.098l-3.188,2.172l0,2.099c4.128,0 9.696,0 13.822,0l0,-2.102l-3.185,-2.175c0,-14.21 0,-28.347 0,-42.557l2.823,-1.884l0,-2.103c-4.125,0 -6.367,0.073 -10.49,0.073c-2.752,-0.073 -3.694,0.435 -4.273,3.117l-6.447,38.279l-0.145,0c-1.666,-14.21 -3.26,-23.779 -5.94,-38.061c-0.652,-2.755 -1.593,-3.408 -4.273,-3.408c-3.837,0 -6.8,0 -10.636,0l0,2.103l2.896,1.884c0,14.21 0,28.492 0,42.702l-3.041,1.885l0,2.247c3.547,0 7.667,0 11.215,0l0,-2.247l-3.042,-1.885Z" style="fill:#30312c;fill-rule:nonzero;"/></g><g id="third.-line" transform="matrix(8.22684,0,0,8.22684,-7056.5,-7158.8)"><path d="M859.107,898.756l-0.345,-2.281l0.189,-0.087l0,-0.147l-0.859,0l0,0.142l0.179,0.101l0.5,2.999l0.464,0l0.391,-1.849l0.363,1.849l0.486,0l0.529,-3.012l0.165,-0.088l0,-0.142l-0.638,0l0,0.142l0.174,0.083c-0.124,0.754 -0.257,1.508 -0.386,2.263l-0.004,0l-0.441,-2.401l-0.299,0l-0.464,2.428l-0.004,0Z" style="fill:#246c5b;fill-rule:nonzero;"/><path d="M863.144,899.464l0,-0.72l-0.202,0l-0.157,0.441c-0.261,0 -0.519,0 -0.78,0l0,-0.023c0.078,-0.028 0.096,-0.069 0.096,-0.143c0,-0.34 0,-0.675 0,-1.015l0.441,0l0.119,0.243l0.138,0c0,-0.225 0,-0.55 0,-0.776l-0.138,0l-0.119,0.253l-0.441,0c0,-0.406 0,-0.812 0,-1.213l0.625,0l0.128,0.452l0.23,0l0,-0.722c-0.56,0 -1.075,0 -1.635,0l0,0.119l0.175,0.119c0,0.904 0,1.81 0,2.715l-0.207,0.137l0,0.133c0.579,0 1.153,0 1.727,0Z" style="fill:#246c5b;fill-rule:nonzero;"/><path d="M865.394,898.27c0,-0.298 -0.142,-0.464 -0.353,-0.546c0.165,-0.069 0.257,-0.243 0.257,-0.422l0,-0.465c0,-0.473 -0.298,-0.587 -0.726,-0.587l-1.014,0l0,0.128l0.174,0.119c0,0.901 0,1.796 0,2.697l-0.207,0.137l0,0.133l1.052,0c0.537,0 0.817,-0.192 0.817,-0.651l0,-0.543Zm-1.295,0.919l0,-0.023c0.078,-0.027 0.096,-0.069 0.096,-0.151c0,-0.359 0,-0.781 0,-1.14l0.331,0c0.285,0 0.391,0.129 0.391,0.395l0,0.543c0,0.239 -0.106,0.376 -0.349,0.376l-0.469,0Zm0.437,-1.543c-0.129,0 -0.212,0 -0.341,0c0,-0.4 0,-0.731 0,-1.13l0.341,0c0.188,0 0.285,0.147 0.285,0.321l0,0.465c0,0.211 -0.083,0.344 -0.285,0.344l0,0Z" style="fill:#246c5b;fill-rule:nonzero;"/><path d="M866.768,896.241l0,0.133l0.175,0.137l0,2.683l-0.202,0.137l0,0.133l0.991,0c0.538,0 0.923,-0.275 0.923,-0.845l0,-1.546c0,-0.603 -0.371,-0.832 -0.923,-0.832l-0.964,0Zm0.964,0.279c0.34,0.005 0.446,0.249 0.446,0.553l0,1.546c0,0.308 -0.106,0.552 -0.446,0.557l-0.404,0l-0.005,-0.028c0.078,-0.023 0.101,-0.064 0.101,-0.143l0,-2.485l0.308,0Z" style="fill:#246c5b;fill-rule:nonzero;"/><path d="M870.869,899.464l0,-0.72l-0.202,0l-0.156,0.441c-0.262,0 -0.519,0 -0.781,0l0,-0.023c0.078,-0.028 0.096,-0.069 0.096,-0.143c0,-0.34 0,-0.675 0,-1.015l0.441,0l0.12,0.243l0.138,0c0,-0.225 0,-0.55 0,-0.776l-0.138,0l-0.12,0.253l-0.441,0c0,-0.406 0,-0.812 0,-1.213l0.625,0l0.129,0.452l0.229,0l0,-0.722c-0.56,0 -1.074,0 -1.634,0l0,0.119l0.174,0.119c0,0.904 0,1.81 0,2.715l-0.206,0.137l0,0.133c0.578,0 1.152,0 1.726,0Z" style="fill:#246c5b;fill-rule:nonzero;"/><path d="M871.783,898.813l0,-0.257l-0.518,0l0,0.252c0,0.491 0.38,0.707 0.821,0.707c0.437,0 0.859,-0.193 0.859,-0.702l0,-0.395c0,-0.85 -1.171,-0.602 -1.171,-1.158l0,-0.391c0,-0.22 0.11,-0.353 0.326,-0.353c0.216,0 0.34,0.124 0.34,0.353l0,0.235l0.473,0c0,-0.29 0,-0.579 0,-0.863l-0.312,0l-0.037,0.174l-0.018,0c-0.152,-0.17 -0.34,-0.206 -0.524,-0.206c-0.372,0 -0.725,0.179 -0.725,0.661l0,0.39c0,0.804 1.162,0.56 1.162,1.162l0,0.391c0,0.229 -0.106,0.39 -0.35,0.39c-0.206,0 -0.326,-0.115 -0.326,-0.39l0,0Z" style="fill:#246c5b;fill-rule:nonzero;"/><path d="M874.043,896.494l0.174,-0.12l0,-0.133l-0.812,0l0,0.133l0.174,0.12c0,0.901 0,1.798 0,2.699l-0.206,0.138l0,0.133c0.266,0 0.61,0 0.872,0l0,-0.133l-0.202,-0.138c0,-0.901 0,-1.798 0,-2.699Z" style="fill:#246c5b;fill-rule:nonzero;"/><path d="M875.214,897.072c0,-0.405 0.188,-0.552 0.418,-0.552c0.225,0 0.437,0.101 0.437,0.372l0,0.244l0.477,0l0,-0.895l-0.317,0l-0.036,0.17l-0.014,0c-0.138,-0.152 -0.354,-0.193 -0.551,-0.193c-0.432,0 -0.896,0.257 -0.896,0.853c0,0.524 0,1.053 0,1.576c0,0.574 0.386,0.854 0.928,0.854c0.211,0 0.436,-0.082 0.551,-0.27l0.051,0.233l0.298,0c0,-0.468 0,-0.936 0,-1.405l-0.753,0l0,0.138l0.271,0.156l0,0.349c0,0.285 -0.11,0.497 -0.427,0.497c-0.276,0 -0.437,-0.17 -0.437,-0.552c0,-0.523 0,-1.052 0,-1.576l0,0.001Z" style="fill:#246c5b;fill-rule:nonzero;"/><path d="M877.561,899.202c0,-0.667 0,-1.338 0,-2.005l-0.055,-0.46l0.014,-0.004l0.749,2.575c0.027,0.092 0.087,0.156 0.197,0.156l0.395,0c0,-0.988 0,-1.972 0,-2.961l0.174,-0.12l0,-0.142c-0.225,0 -0.449,0 -0.674,0l0,0.142l0.174,0.12l0,1.49c0,0.234 0.019,0.542 0.019,0.777l-0.01,0l-0.206,-0.901l-0.451,-1.435c-0.05,-0.175 -0.087,-0.193 -0.289,-0.193c-0.216,0 -0.321,0 -0.542,0l0,0.133l0.175,0.12c0,0.901 0,1.807 0,2.708l-0.193,0.12l0,0.142c0.225,0 0.491,0 0.716,0l0,-0.142l-0.193,-0.12Z" style="fill:#246c5b;fill-rule:nonzero;"/><path d="M881.157,899.464l0,-0.72l-0.202,0l-0.156,0.441c-0.262,0 -0.519,0 -0.781,0l0,-0.023c0.078,-0.028 0.097,-0.069 0.097,-0.143c0,-0.34 0,-0.675 0,-1.015l0.441,0l0.119,0.243l0.138,0c0,-0.225 0,-0.55 0,-0.776l-0.138,0l-0.119,0.253l-0.441,0c0,-0.406 0,-0.812 0,-1.213l0.624,0l0.129,0.452l0.23,0l0,-0.722c-0.561,0 -1.075,0 -1.635,0l0,0.119l0.175,0.119c0,0.904 0,1.81 0,2.715l-0.207,0.137l0,0.133c0.578,0 1.152,0 1.726,0Z" style="fill:#246c5b;fill-rule:nonzero;"/><path d="M882.503,896.525c0.317,0 0.423,0.17 0.423,0.466l0,0.419c0,0.295 -0.119,0.466 -0.427,0.466l-0.294,0c0,-0.503 0,-0.849 0,-1.351l0.298,0Zm0.377,2.517c0.092,0.243 0.12,0.45 0.409,0.45c0.101,0 0.243,-0.014 0.335,-0.06l0,-0.179c-0.147,0.032 -0.23,-0.147 -0.276,-0.271l-0.215,-0.592c-0.051,-0.143 -0.11,-0.23 -0.248,-0.303c0.298,-0.06 0.518,-0.28 0.518,-0.677l0,-0.419c0,-0.562 -0.403,-0.75 -0.9,-0.75l-0.932,0l0,0.133l0.17,0.119c0,0.894 0,1.809 0,2.7l-0.202,0.138l0,0.133c0.266,0 0.606,0 0.872,0l0,-0.133l-0.202,-0.138c0,-0.294 0,-0.762 0,-1.051c0.271,0 0.354,0.064 0.446,0.312l0.225,0.588Z" style="fill:#246c5b;fill-rule:nonzero;"/><path d="M885.466,896.222l-0.717,3.32l0.345,0l0.716,-3.32l-0.344,0Z" style="fill:#30312c;fill-rule:nonzero;"/><path d="M888.772,896.241c-0.564,0 -1.125,0 -1.685,0l0,0.133l0.175,0.142c0,0.895 0,1.786 0,2.677l-0.207,0.138l0,0.133c0.267,0 0.611,0 0.872,0l0,-0.133l-0.202,-0.138c0,-0.399 0,-0.794 0,-1.189l0.496,0l0.12,0.243l0.142,0c0,-0.225 0,-0.55 0,-0.776l-0.142,0l-0.12,0.253l-0.496,0c0,-0.406 0,-0.812 0,-1.213l0.689,0l0.138,0.498l0.22,0l0,-0.768Z" style="fill:#246c5b;fill-rule:nonzero;"/><path d="M890.063,896.525c0.318,0 0.423,0.17 0.423,0.466l0,0.419c0,0.295 -0.119,0.466 -0.427,0.466l-0.294,0c0,-0.503 0,-0.849 0,-1.351l0.298,0Zm0.377,2.517c0.092,0.243 0.12,0.45 0.409,0.45c0.101,0 0.243,-0.014 0.335,-0.06l0,-0.179c-0.147,0.032 -0.23,-0.147 -0.276,-0.271l-0.215,-0.592c-0.051,-0.143 -0.11,-0.23 -0.248,-0.303c0.298,-0.06 0.518,-0.28 0.518,-0.677l0,-0.419c0,-0.562 -0.403,-0.75 -0.9,-0.75l-0.932,0l0,0.133l0.17,0.119c0,0.894 0,1.809 0,2.7l-0.202,0.138l0,0.133c0.266,0 0.606,0 0.872,0l0,-0.133l-0.202,-0.138c0,-0.294 0,-0.762 0,-1.051c0.271,0 0.354,0.064 0.446,0.312l0.225,0.588Z" style="fill:#246c5b;fill-rule:nonzero;"/><path d="M893.37,897.053c0,-0.519 -0.358,-0.858 -0.923,-0.858c-0.56,0 -0.918,0.344 -0.918,0.858l0,1.599c0,0.514 0.358,0.858 0.918,0.858c0.565,0 0.923,-0.339 0.923,-0.858l0,-1.599Zm-1.364,0c0,-0.363 0.138,-0.551 0.441,-0.551c0.308,0 0.451,0.248 0.451,0.551l0,1.599c0,0.298 -0.143,0.551 -0.451,0.551c-0.303,0 -0.441,-0.193 -0.441,-0.551l0,-1.599Z" style="fill:#246c5b;fill-rule:nonzero;"/><path d="M894.385,899.202c0,-0.667 0,-1.338 0,-2.005l-0.055,-0.46l0.014,-0.004l0.749,2.575c0.027,0.092 0.087,0.156 0.197,0.156l0.395,0c0,-0.988 0,-1.972 0,-2.961l0.174,-0.12l0,-0.142c-0.225,0 -0.449,0 -0.674,0l0,0.142l0.174,0.12l0,1.49c0,0.234 0.019,0.542 0.019,0.777l-0.009,0l-0.207,-0.901l-0.451,-1.435c-0.05,-0.175 -0.087,-0.193 -0.289,-0.193c-0.216,0 -0.321,0 -0.542,0l0,0.133l0.175,0.12c0,0.901 0,1.807 0,2.708l-0.193,0.12l0,0.142c0.225,0 0.491,0 0.716,0l0,-0.142l-0.193,-0.12Z" style="fill:#246c5b;fill-rule:nonzero;"/><path d="M897.692,896.529l0.156,0.529l0.221,0l-0.019,-0.817l-1.868,0l-0.019,0.817l0.221,0l0.147,-0.529l0.344,0c0,0.879 0,1.758 0,2.636l-0.202,0.143l0,0.156c0.262,0 0.62,0 0.886,0l0,-0.156l-0.202,-0.143c0,-0.878 0,-1.757 0,-2.636l0.335,0Z" style="fill:#246c5b;fill-rule:nonzero;"/><rect x="898.198" y="897.733" width="0.882" height="0.28" style="fill:#246c5b;fill-rule:nonzero;"/><path d="M901.178,899.464l0,-0.72l-0.202,0l-0.156,0.441c-0.262,0 -0.519,0 -0.781,0l0,-0.023c0.078,-0.028 0.097,-0.069 0.097,-0.143c0,-0.34 0,-0.675 0,-1.015l0.44,0l0.12,0.243l0.138,0c0,-0.225 0,-0.55 0,-0.776l-0.138,0l-0.12,0.253l-0.44,0c0,-0.406 0,-0.812 0,-1.213l0.624,0l0.129,0.452l0.229,0l0,-0.722c-0.56,0 -1.074,0 -1.634,0l0,0.119l0.174,0.119c0,0.904 0,1.81 0,2.715l-0.206,0.137l0,0.133c0.578,0 1.152,0 1.726,0Z" style="fill:#246c5b;fill-rule:nonzero;"/><path d="M902.092,899.202c0,-0.667 0,-1.338 0,-2.005l-0.055,-0.46l0.014,-0.004l0.749,2.575c0.027,0.092 0.087,0.156 0.197,0.156l0.395,0c0,-0.988 0,-1.972 0,-2.961l0.174,-0.12l0,-0.142c-0.225,0 -0.449,0 -0.674,0l0,0.142l0.174,0.12l0,1.49c0,0.234 0.019,0.542 0.019,0.777l-0.009,0l-0.207,-0.901l-0.451,-1.435c-0.05,-0.175 -0.087,-0.193 -0.289,-0.193c-0.216,0 -0.321,0 -0.542,0l0,0.133l0.175,0.12c0,0.901 0,1.807 0,2.708l-0.193,0.12l0,0.142c0.225,0 0.491,0 0.716,0l0,-0.142l-0.193,-0.12Z" style="fill:#246c5b;fill-rule:nonzero;"/><path d="M903.994,896.241l0,0.133l0.175,0.137l0,2.683l-0.202,0.137l0,0.133l0.991,0c0.538,0 0.923,-0.275 0.923,-0.845l0,-1.546c0,-0.603 -0.371,-0.832 -0.923,-0.832l-0.964,0Zm0.964,0.279c0.341,0.005 0.446,0.249 0.446,0.553l0,1.546c0,0.308 -0.105,0.552 -0.446,0.557l-0.404,0l-0.005,-0.028c0.078,-0.023 0.101,-0.064 0.101,-0.143l0,-2.485l0.308,0Z" style="fill:#246c5b;fill-rule:nonzero;"/><path d="M907.319,896.241l0,0.133l0.175,0.137l0,2.683l-0.202,0.137l0,0.133l0.992,0c0.537,0 0.923,-0.275 0.923,-0.845l0,-1.546c0,-0.603 -0.372,-0.832 -0.923,-0.832l-0.965,0Zm0.965,0.279c0.34,0.005 0.446,0.249 0.446,0.553l0,1.546c0,0.308 -0.106,0.552 -0.446,0.557l-0.405,0l-0.004,-0.028c0.078,-0.023 0.101,-0.064 0.101,-0.143l0,-2.485l0.308,0Z" style="fill:#246c5b;fill-rule:nonzero;"/><path d="M911.42,899.464l0,-0.72l-0.202,0l-0.156,0.441c-0.262,0 -0.519,0 -0.78,0l0,-0.023c0.077,-0.028 0.096,-0.069 0.096,-0.143c0,-0.34 0,-0.675 0,-1.015l0.441,0l0.119,0.243l0.138,0c0,-0.225 0,-0.55 0,-0.776l-0.138,0l-0.119,0.253l-0.441,0c0,-0.406 0,-0.812 0,-1.213l0.624,0l0.129,0.452l0.23,0l0,-0.722c-0.561,0 -1.075,0 -1.635,0l0,0.119l0.175,0.119c0,0.904 0,1.81 0,2.715l-0.207,0.137l0,0.133c0.578,0 1.152,0 1.726,0Z" style="fill:#246c5b;fill-rule:nonzero;"/><path d="M912.845,898.922l-0.57,-2.438l0.175,-0.124l0,-0.119l-0.836,0l0,0.142l0.17,0.101l0.739,2.999l0.469,0l0.721,-3.012l0.16,-0.088l0,-0.142l-0.629,0l0,0.142l0.175,0.083l-0.57,2.456l-0.004,0Z" style="fill:#246c5b;fill-rule:nonzero;"/><path d="M915.821,899.464l0,-0.72l-0.203,0l-0.156,0.441c-0.262,0 -0.519,0 -0.78,0l0,-0.023c0.078,-0.028 0.096,-0.069 0.096,-0.143c0,-0.34 0,-0.675 0,-1.015l0.441,0l0.119,0.243l0.138,0c0,-0.225 0,-0.55 0,-0.776l-0.138,0l-0.119,0.253l-0.441,0c0,-0.406 0,-0.812 0,-1.213l0.625,0l0.128,0.452l0.23,0l0,-0.722c-0.561,0 -1.075,0 -1.635,0l0,0.119l0.175,0.119c0,0.904 0,1.81 0,2.715l-0.207,0.137l0,0.133c0.578,0 1.152,0 1.727,0Z" style="fill:#246c5b;fill-rule:nonzero;"/><path d="M917.883,899.464l0,-0.721l-0.202,0l-0.156,0.442c-0.262,0 -0.474,0 -0.735,0l0,-0.023c0.078,-0.028 0.096,-0.069 0.096,-0.143c0,-0.842 0,-1.683 0,-2.525l0.175,-0.12l0,-0.133l-0.827,0l0,0.133l0.175,0.12c0,0.901 0,1.798 0,2.7l-0.207,0.137l0,0.133c0.574,0 1.102,0 1.681,0Z" style="fill:#246c5b;fill-rule:nonzero;"/><path d="M920.106,897.053c0,-0.519 -0.358,-0.858 -0.923,-0.858c-0.561,0 -0.918,0.344 -0.918,0.858l0,1.599c0,0.514 0.357,0.858 0.918,0.858c0.565,0 0.923,-0.339 0.923,-0.858l0,-1.599Zm-1.364,0c0,-0.363 0.138,-0.551 0.441,-0.551c0.308,0 0.45,0.248 0.45,0.551l0,1.599c0,0.298 -0.142,0.551 -0.45,0.551c-0.303,0 -0.441,-0.193 -0.441,-0.551l0,-1.599Z" style="fill:#246c5b;fill-rule:nonzero;"/><path d="M921.557,896.525c0.313,0 0.423,0.17 0.423,0.465l0,0.576c0,0.295 -0.119,0.461 -0.427,0.461l-0.294,0c0,-0.497 0,-1 0,-1.502l0.298,0Zm0.9,0.465c0,-0.561 -0.408,-0.749 -0.904,-0.749l-0.932,0l0,0.133l0.174,0.119c0,0.894 0,1.809 0,2.7l-0.206,0.138l0,0.133c0.266,0 0.61,0 0.872,0l0,-0.133l-0.202,-0.138c0,-0.294 0,-0.606 0,-0.9l0.285,0c0.505,0 0.913,-0.151 0.913,-0.727l0,-0.576Z" style="fill:#246c5b;fill-rule:nonzero;"/><path d="M924.547,899.464l0,-0.72l-0.202,0l-0.156,0.441c-0.262,0 -0.519,0 -0.781,0l0,-0.023c0.078,-0.028 0.097,-0.069 0.097,-0.143c0,-0.34 0,-0.675 0,-1.015l0.441,0l0.119,0.243l0.138,0c0,-0.225 0,-0.55 0,-0.776l-0.138,0l-0.119,0.253l-0.441,0c0,-0.406 0,-0.812 0,-1.213l0.624,0l0.129,0.452l0.229,0l0,-0.722c-0.56,0 -1.074,0 -1.634,0l0,0.119l0.174,0.119c0,0.904 0,1.81 0,2.715l-0.206,0.137l0,0.133c0.578,0 1.152,0 1.726,0Z" style="fill:#246c5b;fill-rule:nonzero;"/><path d="M925.893,896.525c0.317,0 0.423,0.17 0.423,0.466l0,0.419c0,0.295 -0.119,0.466 -0.427,0.466l-0.295,0c0,-0.503 0,-0.849 0,-1.351l0.299,0Zm0.377,2.517c0.092,0.243 0.119,0.45 0.408,0.45c0.101,0 0.244,-0.014 0.336,-0.06l0,-0.179c-0.147,0.032 -0.23,-0.147 -0.276,-0.271l-0.215,-0.592c-0.051,-0.143 -0.111,-0.23 -0.248,-0.303c0.298,-0.06 0.518,-0.28 0.518,-0.677l0,-0.419c0,-0.562 -0.404,-0.75 -0.9,-0.75l-0.932,0l0,0.133l0.17,0.119c0,0.894 0,1.809 0,2.7l-0.202,0.138l0,0.133c0.266,0 0.606,0 0.872,0l0,-0.133l-0.202,-0.138c0,-0.294 0,-0.762 0,-1.051c0.271,0 0.354,0.064 0.446,0.312l0.225,0.588Z" style="fill:#246c5b;fill-rule:nonzero;"/></g><path id="second.-line" d="M59.07,147.052c-1.114,1.012 -2.126,2.025 -3.037,3.037c-0.81,0.81 -1.519,1.696 -2.126,2.657c-0.607,0.962 -0.962,1.848 -1.063,2.658l0,23.385c0,3.34 -0.633,6.453 -1.898,9.339c-1.265,2.885 -2.961,5.416 -5.087,7.592c-2.126,2.177 -4.657,3.898 -7.593,5.163c-2.935,1.265 -6.074,1.898 -9.414,1.898l-0.152,-0.152c-3.341,0 -6.454,-0.632 -9.339,-1.898c-2.885,-1.265 -5.416,-2.961 -7.593,-5.087c-2.176,-2.126 -3.897,-4.631 -5.162,-7.516c-1.266,-2.886 -1.899,-5.999 -1.899,-9.339l0,-6.53c0,-1.215 -0.253,-2.379 -0.759,-3.492c-0.506,-1.114 -1.063,-2.126 -1.67,-3.037c-0.709,-1.114 -1.468,-2.126 -2.278,-3.037l25.207,0c-0.911,0.805 -1.721,1.71 -2.429,2.716c-0.608,0.805 -1.139,1.786 -1.595,2.942c-0.455,1.157 -0.683,2.389 -0.683,3.697l0,6.641c0,2.213 0.784,4.124 2.354,5.734c1.569,1.609 3.517,2.414 5.846,2.414l0.304,0c2.227,0 4.125,-0.784 5.694,-2.35c1.569,-1.567 2.354,-3.512 2.354,-5.836l0,-23.197c-0.102,-0.809 -0.481,-1.718 -1.139,-2.729c-0.658,-1.011 -1.392,-1.92 -2.202,-2.729c-0.911,-1.01 -1.924,-2.021 -3.037,-3.032c1.721,-1.213 2.986,-2.401 3.796,-3.564c0.81,-1.162 1.417,-2.198 1.822,-3.108c0.405,-1.112 0.658,-2.173 0.76,-3.184l0,-36.992c0,-1.011 -0.253,-2.022 -0.76,-3.033c-0.506,-1.01 -1.063,-1.92 -1.67,-2.728c-0.709,-1.011 -1.468,-1.92 -2.278,-2.729l25.359,0c-0.911,0.911 -1.721,1.873 -2.429,2.886c-0.608,0.809 -1.164,1.771 -1.671,2.885c-0.506,1.113 -0.759,2.176 -0.759,3.189l0,36.747c0,0.405 0.278,1.57 0.835,3.493c0.557,1.923 2.354,3.999 5.391,6.226Z" style="fill:#42332c;fill-rule:nonzero;"/><path d="M122.544,192.607c0,1.417 0.227,2.733 0.683,3.948c0.456,1.215 0.987,2.278 1.594,3.189c0.709,1.114 1.519,2.075 2.43,2.885l-24.752,0c0.81,-0.911 1.569,-1.923 2.278,-3.037c0.607,-0.911 1.164,-1.923 1.67,-3.037c0.507,-1.113 0.76,-2.328 0.76,-3.644l0,-36.9l-22.171,0l0,36.596c0,1.417 0.228,2.733 0.684,3.948c0.455,1.215 0.987,2.278 1.594,3.189c0.709,1.114 1.519,2.075 2.43,2.885l-24.752,0c0.81,-0.911 1.569,-1.923 2.278,-3.037c0.607,-0.911 1.164,-1.923 1.67,-3.037c0.506,-1.113 0.76,-2.328 0.76,-3.644l0,-37.507c-0.102,-0.81 -0.456,-1.696 -1.063,-2.658c-0.608,-0.961 -1.316,-1.847 -2.126,-2.657c-0.911,-1.012 -1.924,-2.025 -3.037,-3.037c1.518,-1.114 2.708,-2.227 3.568,-3.341c0.861,-1.113 1.493,-2.126 1.898,-3.037c0.405,-0.911 0.633,-1.67 0.684,-2.278c0.05,-0.607 0.076,-0.961 0.076,-1.063l0,-36.596c0,-1.113 -0.254,-2.201 -0.76,-3.264c-0.506,-1.063 -1.063,-2.05 -1.67,-2.961c-0.709,-1.114 -1.468,-2.126 -2.278,-3.037l24.752,0c-0.911,0.809 -1.721,1.67 -2.43,2.581c-0.607,0.81 -1.139,1.746 -1.594,2.809c-0.456,1.063 -0.684,2.303 -0.684,3.721l0,40.088l22.171,0l0,-39.937c0,-1.113 -0.253,-2.201 -0.76,-3.264c-0.506,-1.063 -1.063,-2.05 -1.67,-2.961c-0.709,-1.114 -1.468,-2.126 -2.278,-3.037l24.752,0c-0.911,0.809 -1.721,1.67 -2.43,2.581c-0.607,0.81 -1.138,1.746 -1.594,2.809c-0.456,1.063 -0.683,2.303 -0.683,3.721l0,36.596c0,0.101 0.025,0.455 0.076,1.063c0.05,0.607 0.253,1.366 0.607,2.277c0.354,0.911 0.962,1.924 1.822,3.037c0.861,1.114 2.101,2.278 3.721,3.493c-1.114,1.012 -2.126,2.025 -3.037,3.037c-0.81,0.81 -1.544,1.721 -2.202,2.733c-0.658,1.013 -0.987,1.924 -0.987,2.734l0,37.051Z" style="fill:#42332c;fill-rule:nonzero;"/><path d="M193.762,147.052c-1.114,1.012 -2.126,2.025 -3.037,3.037c-0.81,0.81 -1.519,1.696 -2.126,2.657c-0.608,0.962 -0.962,1.848 -1.063,2.658l0,23.537c0,3.34 -0.633,6.453 -1.898,9.338c-1.266,2.886 -3.012,5.442 -5.239,7.669c-2.227,2.227 -4.783,3.973 -7.669,5.239c-2.885,1.265 -5.998,1.898 -9.338,1.898l-4.556,0.152c-3.341,0 -6.454,-0.658 -9.339,-1.974c-2.885,-1.316 -5.441,-3.063 -7.668,-5.239c-2.227,-2.177 -3.974,-4.733 -5.239,-7.669c-1.266,-2.935 -1.898,-6.074 -1.898,-9.414l0,-23.537c-0.203,-0.81 -0.608,-1.696 -1.215,-2.658c-0.608,-0.961 -1.316,-1.847 -2.126,-2.657c-0.911,-1.012 -1.873,-2.025 -2.885,-3.037c1.518,-1.114 2.683,-2.202 3.492,-3.265c0.81,-1.063 1.418,-2.025 1.823,-2.885c0.405,-0.861 0.658,-1.62 0.759,-2.278c0.101,-0.658 0.152,-1.088 0.152,-1.291l0,-22.929c0,-3.341 0.632,-6.454 1.898,-9.339c1.265,-2.885 3.012,-5.441 5.239,-7.668c2.227,-2.227 4.783,-3.974 7.668,-5.239c2.885,-1.266 5.998,-1.898 9.339,-1.898l4.707,0c3.341,0 6.454,0.632 9.339,1.898c2.885,1.265 5.416,3.012 7.593,5.239c2.176,2.227 3.897,4.783 5.163,7.668c1.265,2.885 1.898,5.998 1.898,9.339l0,22.929c0,0.203 0.05,0.608 0.152,1.215c0.101,0.608 0.354,1.367 0.759,2.278c0.405,0.911 1.012,1.898 1.822,2.961c0.81,1.063 1.974,2.151 3.493,3.265Zm-30.43,40.24c2.346,0 4.309,-0.987 5.889,-2.961c1.58,-1.974 2.37,-4.074 2.37,-6.302l0,-22.929c-0.202,-0.81 -0.607,-1.67 -1.214,-2.581c-0.608,-0.912 -1.316,-1.772 -2.126,-2.582c-0.911,-1.012 -1.873,-1.974 -2.885,-2.885c1.518,-1.114 2.708,-2.202 3.568,-3.265c0.861,-1.063 1.493,-2.05 1.898,-2.961c0.405,-0.911 0.658,-1.67 0.759,-2.278c0.102,-0.607 0.152,-1.012 0.152,-1.215l0,-22.018c0,-2.227 -0.815,-4.328 -2.447,-6.302c-1.632,-1.974 -3.569,-2.961 -5.812,-2.961l-4.741,0c-2.345,0 -4.308,0.987 -5.889,2.961c-1.58,1.974 -2.37,4.075 -2.37,6.302l0,22.018c0,0.203 0.051,0.608 0.152,1.215c0.101,0.608 0.354,1.367 0.759,2.278c0.405,0.911 1.013,1.898 1.823,2.961c0.809,1.063 1.974,2.151 3.492,3.265c-1.012,1.012 -1.974,2.025 -2.885,3.037c-0.81,0.81 -1.544,1.696 -2.202,2.657c-0.658,0.962 -1.038,1.848 -1.139,2.658l0,22.625c0,2.228 0.79,4.354 2.37,6.378c1.581,2.025 3.544,3.037 5.889,3.037l4.589,-0.152Z" style="fill:#42332c;fill-rule:nonzero;"/><path d="M257.235,192.911c0,1.316 0.253,2.531 0.76,3.644c0.506,1.114 1.063,2.126 1.67,3.037c0.709,1.114 1.518,2.126 2.43,3.037l-25.815,0c1.114,-0.911 2.025,-1.974 2.733,-3.189c0.608,-1.012 1.089,-2.252 1.443,-3.72c0.354,-1.468 0.228,-3.062 -0.38,-4.783l-22.777,-56.489l0,58.615c0,1.417 0.253,2.708 0.759,3.872c0.506,1.164 1.063,2.151 1.67,2.961c0.709,1.012 1.519,1.923 2.43,2.733l-24.904,0c0.911,-0.81 1.721,-1.771 2.43,-2.885c0.607,-0.911 1.164,-1.949 1.67,-3.113c0.506,-1.164 0.759,-2.404 0.759,-3.72l0,-37.355l-0.151,0c-0.102,-0.81 -0.456,-1.721 -1.063,-2.734c-0.608,-1.012 -1.316,-1.923 -2.126,-2.733c-0.911,-1.012 -1.924,-2.025 -3.037,-3.037c1.619,-1.114 2.834,-2.227 3.644,-3.341c0.81,-1.113 1.417,-2.126 1.822,-3.037c0.405,-0.911 0.633,-1.67 0.684,-2.278c0.05,-0.607 0.076,-0.961 0.076,-1.063l0,-37.355c0,-0.708 -0.253,-1.544 -0.76,-2.505c-0.506,-0.962 -1.063,-1.899 -1.67,-2.81c-0.709,-1.113 -1.468,-2.176 -2.278,-3.188l27.333,0c-1.012,1.012 -1.872,2.075 -2.581,3.188c-0.607,1.013 -1.114,2.101 -1.519,3.265c-0.404,1.164 -0.455,2.354 -0.151,3.569l21.714,54.059l0,-55.578c0,-0.911 -0.253,-1.873 -0.759,-2.885c-0.506,-1.012 -1.063,-1.923 -1.67,-2.733c-0.709,-1.013 -1.519,-1.974 -2.43,-2.885l24.904,0c-0.912,0.911 -1.721,1.872 -2.43,2.885c-0.607,0.81 -1.164,1.721 -1.67,2.733c-0.507,1.012 -0.76,1.974 -0.76,2.885l0,37.204c0,0.101 0.026,0.455 0.076,1.063c0.051,0.607 0.279,1.366 0.684,2.277c0.405,0.911 1.037,1.949 1.898,3.113c0.86,1.164 2.05,2.303 3.568,3.417c-1.113,1.012 -2.126,2.025 -3.037,3.037c-0.81,0.81 -1.518,1.696 -2.126,2.657c-0.607,0.962 -0.961,1.848 -1.063,2.658l0,37.507Z" style="fill:#42332c;fill-rule:nonzero;"/><path d="M329.82,192.911c0,1.316 0.253,2.531 0.759,3.644c0.506,1.114 1.063,2.126 1.671,3.037c0.708,1.114 1.518,2.126 2.429,3.037l-25.814,0c1.113,-0.911 2.024,-1.974 2.733,-3.189c0.607,-1.012 1.088,-2.252 1.443,-3.72c0.354,-1.468 0.227,-3.062 -0.38,-4.783l-22.778,-56.489l0,58.615c0,1.417 0.253,2.708 0.76,3.872c0.506,1.164 1.062,2.151 1.67,2.961c0.709,1.012 1.518,1.923 2.43,2.733l-24.904,0c0.911,-0.81 1.721,-1.771 2.43,-2.885c0.607,-0.911 1.164,-1.949 1.67,-3.113c0.506,-1.164 0.759,-2.404 0.759,-3.72l0,-37.355l-0.152,0c-0.101,-0.81 -0.455,-1.721 -1.063,-2.734c-0.607,-1.012 -1.316,-1.923 -2.126,-2.733c-0.911,-1.012 -1.923,-2.025 -3.037,-3.037c1.62,-1.114 2.835,-2.227 3.645,-3.341c0.81,-1.113 1.417,-2.126 1.822,-3.037c0.405,-0.911 0.633,-1.67 0.683,-2.278c0.051,-0.607 0.076,-0.961 0.076,-1.063l0,-37.355c0,-0.708 -0.253,-1.544 -0.759,-2.505c-0.506,-0.962 -1.063,-1.899 -1.67,-2.81c-0.709,-1.113 -1.468,-2.176 -2.278,-3.188l27.333,0c-1.012,1.012 -1.873,2.075 -2.581,3.188c-0.608,1.013 -1.114,2.101 -1.519,3.265c-0.405,1.164 -0.455,2.354 -0.152,3.569l21.715,54.059l0,-55.578c0,-0.911 -0.253,-1.873 -0.759,-2.885c-0.506,-1.012 -1.063,-1.923 -1.671,-2.733c-0.708,-1.013 -1.518,-1.974 -2.429,-2.885l24.903,0c-0.911,0.911 -1.721,1.872 -2.429,2.885c-0.608,0.81 -1.165,1.721 -1.671,2.733c-0.506,1.012 -0.759,1.974 -0.759,2.885l0,37.204c0,0.101 0.025,0.455 0.076,1.063c0.051,0.607 0.278,1.366 0.683,2.277c0.405,0.911 1.038,1.949 1.898,3.113c0.861,1.164 2.05,2.303 3.569,3.417c-1.114,1.012 -2.126,2.025 -3.037,3.037c-0.81,0.81 -1.519,1.696 -2.126,2.657c-0.607,0.962 -0.962,1.848 -1.063,2.658l0,37.507Z" style="fill:#42332c;fill-rule:nonzero;"/><path d="M403.468,91.323c-0.911,0.708 -1.822,1.468 -2.734,2.277c-0.809,0.709 -1.569,1.494 -2.277,2.354c-0.709,0.861 -1.215,1.797 -1.519,2.809c-0.202,0.507 -0.683,2 -1.442,4.48c-0.76,2.48 -1.721,5.492 -2.886,9.035c-1.164,3.543 -2.404,7.415 -3.72,11.617c-1.316,4.201 -2.632,8.326 -3.948,12.376c-0.405,1.012 -0.456,2.075 -0.152,3.188c0.203,1.013 0.734,2.177 1.594,3.493c0.861,1.316 2.304,2.683 4.328,4.1c-1.417,0.607 -2.834,1.367 -4.252,2.278c-1.214,0.81 -2.556,1.822 -4.024,3.037c-1.468,1.215 -2.809,2.682 -4.024,4.403l0,0.304l-1.214,3.341l0,31.281c0,1.114 0.253,2.303 0.759,3.569c0.506,1.265 1.063,2.454 1.67,3.568c0.709,1.215 1.519,2.48 2.43,3.796l-24.904,0c0.911,-1.316 1.721,-2.581 2.43,-3.796c0.607,-1.114 1.164,-2.252 1.67,-3.417c0.506,-1.164 0.759,-2.201 0.759,-3.113l0,-32.04c-0.101,-0.203 -0.202,-0.506 -0.303,-0.911c-0.101,-0.304 -0.203,-0.658 -0.304,-1.063c-0.101,-0.405 -0.253,-0.861 -0.456,-1.367c-1.316,-1.721 -2.682,-3.214 -4.099,-4.479c-1.418,-1.266 -2.734,-2.303 -3.949,-3.113c-1.417,-0.911 -2.885,-1.671 -4.403,-2.278c1.923,-1.316 3.315,-2.607 4.176,-3.872c0.86,-1.266 1.417,-2.354 1.67,-3.265c0.253,-0.911 0.329,-1.67 0.228,-2.278c-0.101,-0.607 -0.152,-1.012 -0.152,-1.215c-1.316,-4.15 -2.657,-8.351 -4.024,-12.603c-1.367,-4.252 -2.632,-8.175 -3.796,-11.769c-1.165,-3.594 -2.152,-6.631 -2.962,-9.111c-0.809,-2.48 -1.265,-4.024 -1.366,-4.631c-0.405,-1.013 -0.937,-1.949 -1.595,-2.809c-0.658,-0.861 -1.341,-1.595 -2.05,-2.202c-0.809,-0.709 -1.721,-1.367 -2.733,-1.974l26.878,0c-1.114,0.81 -2.076,1.721 -2.885,2.733c-0.709,0.81 -1.291,1.721 -1.747,2.733c-0.455,1.013 -0.481,2.076 -0.076,3.189l11.541,36.444l11.692,-36.596c0.304,-0.81 0.228,-1.746 -0.227,-2.809c-0.456,-1.063 -1.038,-1.999 -1.747,-2.809c-0.809,-1.013 -1.721,-1.974 -2.733,-2.885l26.878,0Z" style="fill:#42332c;fill-rule:nonzero;"/><path d="M451.149,145.989l25.815,0l0,32.648c0,3.341 -0.633,6.479 -1.899,9.415c-1.265,2.935 -2.986,5.492 -5.163,7.668c-2.176,2.177 -4.707,3.923 -7.592,5.239c-2.885,1.316 -5.998,1.974 -9.339,1.974l-4.555,0c-3.341,0 -6.454,-0.658 -9.339,-1.974c-2.885,-1.316 -5.416,-3.062 -7.593,-5.239c-2.176,-2.176 -3.897,-4.733 -5.163,-7.668c-1.265,-2.936 -1.898,-6.074 -1.898,-9.415l0,-23.233c-0.101,-0.81 -0.455,-1.696 -1.063,-2.658c-0.607,-0.961 -1.316,-1.847 -2.126,-2.657c-0.911,-1.012 -1.923,-2.025 -3.037,-3.037c1.519,-1.114 2.708,-2.227 3.569,-3.341c0.86,-1.113 1.493,-2.126 1.898,-3.037c0.405,-0.911 0.633,-1.67 0.683,-2.278c0.051,-0.607 0.076,-0.961 0.076,-1.063l0,-23.081c0,-3.341 0.633,-6.479 1.898,-9.415c1.266,-2.935 2.987,-5.492 5.163,-7.668c2.177,-2.177 4.708,-3.923 7.593,-5.239c2.885,-1.316 5.998,-1.974 9.339,-1.974l4.707,0c3.341,0 6.454,0.658 9.339,1.974c2.885,1.316 5.39,3.062 7.516,5.239c2.126,2.176 3.822,4.733 5.087,7.668c1.266,2.936 1.899,6.074 1.899,9.415l0,5.619c0,1.417 0.253,2.733 0.759,3.948c0.506,1.215 1.063,2.278 1.67,3.189c0.709,1.113 1.519,2.075 2.43,2.885l-25.359,0c0.911,-0.81 1.721,-1.721 2.429,-2.734c0.608,-0.809 1.164,-1.771 1.671,-2.885c0.506,-1.113 0.759,-2.328 0.759,-3.644l0,-6.378c0,-2.328 -0.81,-4.328 -2.43,-5.998c-1.619,-1.67 -3.543,-2.506 -5.77,-2.506l-4.707,0c-2.329,0 -4.278,0.836 -5.847,2.506c-1.569,1.67 -2.353,3.67 -2.353,5.998l0,23.081c0,0.203 0.025,0.583 0.076,1.139c0.05,0.557 0.278,1.291 0.683,2.202c0.405,0.911 1.038,1.924 1.898,3.037c0.861,1.114 2.05,2.227 3.569,3.341c-1.114,1.012 -2.126,2.025 -3.038,3.037c-0.809,0.81 -1.518,1.696 -2.125,2.657c-0.608,0.962 -0.962,1.848 -1.063,2.658l0,23.233c0,2.328 0.784,4.328 2.353,5.998c1.569,1.67 3.518,2.506 5.847,2.506l4.555,0c2.328,0 4.277,-0.836 5.846,-2.506c1.569,-1.67 2.354,-3.67 2.354,-5.998l0,-17.311c-1.417,-0.101 -2.733,0.051 -3.948,0.455c-1.215,0.405 -2.278,0.836 -3.189,1.291c-0.911,0.456 -1.62,0.911 -2.126,1.367c-0.506,0.455 -0.759,0.734 -0.759,0.835l0,-19.285Z" style="fill:#42332c;fill-rule:nonzero;"/><path d="M508.093,192.455c0,1.418 0.228,2.734 0.683,3.948c0.456,1.215 0.987,2.278 1.595,3.189c0.708,1.114 1.518,2.076 2.429,2.885l-25.207,0c0.81,-0.911 1.569,-1.923 2.278,-3.037c0.607,-0.911 1.164,-1.923 1.67,-3.037c0.506,-1.113 0.759,-2.328 0.759,-3.644l0,-37.355c-0.101,-0.81 -0.455,-1.696 -1.062,-2.658c-0.608,-0.961 -1.317,-1.847 -2.126,-2.657c-0.912,-1.012 -1.924,-2.025 -3.037,-3.037c1.518,-1.114 2.708,-2.227 3.568,-3.341c0.861,-1.113 1.493,-2.126 1.898,-3.037c0.405,-0.911 0.633,-1.67 0.684,-2.278c0.05,-0.607 0.075,-0.961 0.075,-1.063l0,-36.596c0,-1.113 -0.253,-2.227 -0.759,-3.34c-0.506,-1.114 -1.063,-2.126 -1.67,-3.037c-0.709,-1.114 -1.468,-2.126 -2.278,-3.037l25.207,0c-0.911,0.708 -1.721,1.569 -2.429,2.581c-0.608,0.81 -1.139,1.772 -1.595,2.885c-0.455,1.114 -0.683,2.329 -0.683,3.645l0,36.899c0,0.203 0.025,0.583 0.076,1.139c0.051,0.557 0.278,1.291 0.683,2.202c0.405,0.911 1.038,1.924 1.898,3.037c0.861,1.114 2.05,2.227 3.569,3.341c-1.114,1.012 -2.126,2.025 -3.037,3.037c-0.81,0.81 -1.519,1.696 -2.126,2.657c-0.607,0.962 -0.962,1.848 -1.063,2.658l0,37.051Z" style="fill:#42332c;fill-rule:nonzero;"/><path d="M556.685,187.444c1.316,0 2.683,-0.303 4.1,-0.911c1.417,-0.607 2.734,-1.316 3.948,-2.126c1.215,-0.81 2.278,-1.62 3.189,-2.429c0.911,-0.81 1.569,-1.468 1.974,-1.974l-5.315,22.625l-42.821,0c0.911,-1.214 1.721,-2.429 2.429,-3.644c0.608,-1.114 1.164,-2.303 1.671,-3.569c0.506,-1.265 0.759,-2.505 0.759,-3.72l0,-0.304l0,-35.988c-0.101,-0.81 -0.456,-1.696 -1.063,-2.658c-0.608,-0.961 -1.316,-1.847 -2.126,-2.657c-0.911,-1.012 -1.924,-2.025 -3.037,-3.037c1.518,-1.114 2.708,-2.227 3.568,-3.341c0.861,-1.113 1.494,-2.126 1.899,-3.037c0.404,-0.911 0.632,-1.67 0.683,-2.278c0.05,-0.607 0.076,-0.961 0.076,-1.063l0,-36.14c0,-1.519 -0.253,-2.885 -0.759,-4.1c-0.507,-1.215 -1.063,-2.227 -1.671,-3.037c-0.708,-1.012 -1.468,-1.873 -2.278,-2.581l25.359,0c-1.619,1.012 -2.834,2.429 -3.644,4.251c-0.81,1.823 -1.215,3.442 -1.215,4.86l0,36.747c0,0.203 0.051,0.608 0.152,1.215c0.101,0.608 0.354,1.367 0.759,2.278c0.405,0.911 1.013,1.898 1.823,2.961c0.809,1.063 1.974,2.151 3.492,3.265c-1.012,1.012 -1.974,2.025 -2.885,3.037c-0.81,0.81 -1.544,1.696 -2.202,2.657c-0.658,0.962 -1.038,1.848 -1.139,2.658l0,32.04l14.274,0Z" style="fill:#42332c;fill-rule:nonzero;"/><path id="moustache" d="M284.948,307.516c158.087,136.137 199.463,-23.987 199.463,-23.987c-23.47,41.072 -63.539,7.874 -63.539,7.874c-80.715,-66.427 -135.924,0 -135.924,0c0,0 -55.33,-66.457 -135.924,0c0,0 -39.977,33.289 -63.538,-7.752c0,0 41.71,160.062 199.523,23.622" style="fill:#30312c;fill-rule:nonzero;"/></g></svg>