<?xml version="1.0" encoding="UTF-8" standalone="no"?><!DOCTYPE svg PUBLIC "-//W3C//DTD SVG 1.1//EN" "http://www.w3.org/Graphics/SVG/1.1/DTD/svg11.dtd"><svg width="100%" height="100%" viewBox="0 0 399 843" version="1.1" xmlns="http://www.w3.org/2000/svg" xmlns:xlink="http://www.w3.org/1999/xlink" xml:space="preserve" style="fill-rule:evenodd;clip-rule:evenodd;stroke-linejoin:round;stroke-miterlimit:1.41421;"><path id="hanging.-moustache" d="M194.213,766.459l0,-756.811c0.101,-1.777 0.053,-2.28 0.453,-3.939c0.3,-1.24 0.737,-2.35 1.284,-3.259c0.546,-0.908 1.19,-1.594 1.89,-2.013c0.937,-0.562 1.203,-0.421 2.171,-0.421c0.358,0.14 0.716,0.28 1.074,0.421c0.334,0.274 0.686,0.486 1.003,0.823c0.637,0.679 1.189,1.597 1.622,2.695c0.432,1.098 0.735,2.352 0.888,3.679c0.076,0.661 0.076,1.343 0.115,2.014l0,756.805c15.571,-14.348 64.568,-49.057 130.673,5.347c0,0 40.069,33.198 63.539,-7.874c0,0 -41.376,160.123 -199.462,23.986l0.06,-0.243c-157.812,136.441 -199.523,-23.622 -199.523,-23.622c23.561,41.042 63.539,7.753 63.539,7.753c66.02,-54.44 115.087,-19.689 130.674,-5.341Z" style="fill:#a69c90;"/></svg>