<?xml version="1.0" encoding="UTF-8" standalone="no"?><!DOCTYPE svg PUBLIC "-//W3C//DTD SVG 1.1//EN" "http://www.w3.org/Graphics/SVG/1.1/DTD/svg11.dtd"><svg width="100%" height="100%" viewBox="0 0 614 338" version="1.1" xmlns="http://www.w3.org/2000/svg" xmlns:xlink="http://www.w3.org/1999/xlink" xml:space="preserve" style="fill-rule:evenodd;clip-rule:evenodd;stroke-linecap:round;stroke-linejoin:round;stroke-miterlimit:1.5;"><g id="container"><g id="Capa1"><path d="M233.264,176.826c7.243,-21.623 27.665,-37.205 51.726,-37.205c13.682,0 28.362,0 42.044,0c23.383,0 43.329,14.716 51.082,35.392l28.082,46.327l-24.627,14.928l0,98.119l-151.119,0l0,-98.395l-24.171,-14.652l26.983,-44.514Z" style="fill:#eee8db;"/><clipPath id="_clip1"><path d="M233.264,176.826c7.243,-21.623 27.665,-37.205 51.726,-37.205c13.682,0 28.362,0 42.044,0c23.383,0 43.329,14.716 51.082,35.392l28.082,46.327l-24.627,14.928l0,98.119l-151.119,0l0,-98.395l-24.171,-14.652l26.983,-44.514Z"/></clipPath><g clip-path="url(#_clip1)"><g><path d="M112.047,312.36l364.073,0" style="fill:none;stroke:#a8917b;stroke-width:1.5px;"/><path d="M112.047,284.823l364.073,0" style="fill:none;stroke:#a8917b;stroke-width:1.5px;"/><path d="M112.047,257.287l364.073,0" style="fill:none;stroke:#a8917b;stroke-width:1.5px;"/><path d="M112.047,229.75l364.073,0" style="fill:none;stroke:#a8917b;stroke-width:1.5px;"/><path d="M112.047,202.213l364.073,0" style="fill:none;stroke:#a8917b;stroke-width:1.5px;"/><path d="M112.047,174.676l364.073,0" style="fill:none;stroke:#a8917b;stroke-width:1.5px;"/><path d="M112.047,147.139l364.073,0" style="fill:none;stroke:#a8917b;stroke-width:1.5px;"/><path d="M112.047,119.602l364.073,0" style="fill:none;stroke:#a8917b;stroke-width:1.5px;"/><path d="M112.047,92.065l364.073,0" style="fill:none;stroke:#a8917b;stroke-width:1.5px;"/><path d="M112.047,64.528l364.073,0" style="fill:none;stroke:#a8917b;stroke-width:1.5px;"/><path d="M112.047,36.991l364.073,0" style="fill:none;stroke:#a8917b;stroke-width:1.5px;"/></g><g><path d="M115.093,33.945l0,364.072" style="fill:none;stroke:#a8917b;stroke-width:1.5px;"/><path d="M142.63,33.945l0,364.072" style="fill:none;stroke:#a8917b;stroke-width:1.5px;"/><path d="M170.167,33.945l0,364.072" style="fill:none;stroke:#a8917b;stroke-width:1.5px;"/><path d="M197.704,33.945l0,364.072" style="fill:none;stroke:#a8917b;stroke-width:1.5px;"/><path d="M225.241,33.945l0,364.072" style="fill:none;stroke:#a8917b;stroke-width:1.5px;"/><path d="M252.778,33.945l0,364.072" style="fill:none;stroke:#a8917b;stroke-width:1.5px;"/><path d="M280.315,33.945l0,364.072" style="fill:none;stroke:#a8917b;stroke-width:1.5px;"/><path d="M307.852,33.945l0,364.072" style="fill:none;stroke:#a8917b;stroke-width:1.5px;"/><path d="M335.389,33.945l0,364.072" style="fill:none;stroke:#a8917b;stroke-width:1.5px;"/><path d="M362.926,33.945l0,364.072" style="fill:none;stroke:#a8917b;stroke-width:1.5px;"/><path d="M390.463,33.945l0,364.072" style="fill:none;stroke:#a8917b;stroke-width:1.5px;"/><path d="M418,33.945l0,364.072" style="fill:none;stroke:#a8917b;stroke-width:1.5px;"/><path d="M445.536,33.945l0,364.072" style="fill:none;stroke:#a8917b;stroke-width:1.5px;"/><path d="M473.073,33.945l0,364.072" style="fill:none;stroke:#a8917b;stroke-width:1.5px;"/></g><rect x="249.919" y="146.656" width="6.585" height="187.731" style="fill:#cab992;stroke:#a9917b;stroke-width:2px;"/><rect x="355.519" y="146.656" width="6.585" height="187.731" style="fill:#c9ba93;stroke:#a9917b;stroke-width:2px;"/><path d="M349.603,194.386l-28.42,0c0,0 0,10.664 0,19.235c0,2.804 1.113,5.493 3.096,7.475c1.982,1.982 4.671,3.096 7.475,3.096c2.377,0 4.9,0 7.278,0c2.804,0 5.492,-1.114 7.475,-3.096c1.982,-1.982 3.096,-4.671 3.096,-7.475c0,-8.571 0,-19.235 0,-19.235Z" style="fill:#d48378;stroke:#c4a08e;stroke-width:2px;"/></g><path d="M233.264,176.826c7.243,-21.623 27.665,-37.205 51.726,-37.205c13.682,0 28.362,0 42.044,0c23.383,0 43.329,14.716 51.082,35.392l28.082,46.327l-24.627,14.928l0,98.119l-151.119,0l0,-98.395l-24.171,-14.652l26.983,-44.514Z" style="fill:none;stroke:#a8917b;stroke-width:1.5px;"/></g><path d="M523.196,253.19l-433.202,0l-89.244,83.046l611.59,0.312l-89.144,-83.358Z" style="fill:#a69c90;stroke:#a1897c;stroke-width:1.5px;"/><path d="M255.539,269.501c-1.29,0.086 -2.596,0.13 -3.915,0.13c-25.025,0 -45.343,-15.761 -45.343,-35.174c0,-3.883 0.813,-7.62 2.314,-11.113l20.603,8.518c-0.161,0.847 -0.245,1.713 -0.245,2.595c0,9.706 10.159,17.587 22.671,17.587c1.335,0 2.643,-0.09 3.915,-0.262l0,17.719Z" style="fill:#fee4c8;stroke:#cdac9a;stroke-width:1.5px;"/><path d="M359.881,269.501c1.291,0.086 2.597,0.13 3.915,0.13c25.026,0 45.343,-15.761 45.343,-35.174c0,-3.883 -0.813,-7.62 -2.313,-11.113l-20.604,8.518c0.162,0.847 0.246,1.713 0.246,2.595c0,9.706 -10.159,17.587 -22.672,17.587c-1.335,0 -2.643,-0.09 -3.915,-0.262l0,17.719Z" style="fill:#fee4c8;stroke:#cdac9a;stroke-width:1.5px;"/><path d="M241.118,226.817l-31.333,-17.302l-6.828,12.365l31.333,17.302l6.828,-12.365Z" style="fill:#565853;stroke:#a9917b;stroke-width:1.5px;"/><path d="M372.301,226.817l31.333,-17.302l6.828,12.365l-31.333,17.302l-6.828,-12.365Z" style="fill:#565853;stroke:#a9917b;stroke-width:1.5px;"/><g id="head"><ellipse cx="250.673" cy="83.594" rx="11.276" ry="11.215" style="fill:#f6ddc8;"/><clipPath id="_clip2"><ellipse cx="250.673" cy="83.594" rx="11.276" ry="11.215"/></clipPath><g clip-path="url(#_clip2)"><path d="M246.011,78.279c0,0 1.987,0.379 3.782,0.721c1.761,0.335 3.233,1.539 3.913,3.198c0.473,1.155 0.921,2.249 0.921,2.249c0,0 -2.899,0.432 -5.334,0.795c-2.004,0.299 -3.655,1.727 -4.239,3.667c0,0 0,0 0,0" style="fill:none;stroke:#ccac9a;stroke-width:1px;"/><path d="M246.011,78.279c0,0 1.987,0.379 3.782,0.721c1.761,0.335 3.233,1.539 3.913,3.198c0.473,1.155 0.921,2.249 0.921,2.249c0,0 -2.899,0.432 -5.334,0.795c-2.004,0.299 -3.655,1.727 -4.239,3.667c0,0 0,0 0,0" style="fill:none;stroke:#ccac9a;stroke-width:1px;"/></g><ellipse cx="250.673" cy="83.594" rx="11.276" ry="11.215" style="fill:none;stroke:#ccac9a;stroke-width:2px;"/><ellipse cx="364.205" cy="83.594" rx="11.276" ry="11.215" style="fill:#f6ddc8;"/><clipPath id="_clip3"><ellipse cx="364.205" cy="83.594" rx="11.276" ry="11.215"/></clipPath><g clip-path="url(#_clip3)"><path d="M368.867,78.279c0,0 -1.988,0.379 -3.782,0.721c-1.762,0.335 -3.234,1.539 -3.913,3.198c-0.473,1.155 -0.921,2.249 -0.921,2.249c0,0 2.899,0.432 5.333,0.795c2.004,0.299 3.655,1.727 4.24,3.667c0,0 0,0 0,0" style="fill:none;stroke:#ccac9a;stroke-width:1px;"/><path d="M368.867,78.279c0,0 -1.988,0.379 -3.782,0.721c-1.762,0.335 -3.234,1.539 -3.913,3.198c-0.473,1.155 -0.921,2.249 -0.921,2.249c0,0 2.899,0.432 5.333,0.795c2.004,0.299 3.655,1.727 4.24,3.667c0,0 0,0 0,0" style="fill:none;stroke:#ccac9a;stroke-width:1px;"/></g><ellipse cx="364.205" cy="83.594" rx="11.276" ry="11.215" style="fill:none;stroke:#ccac9a;stroke-width:2px;"/><path d="M359.845,55.41c0,-29.027 -23.531,-52.557 -52.557,-52.557c0,0 0,0 -0.001,0c-29.026,0 -52.556,23.53 -52.556,52.557c0,17.45 0,36.471 0,52.383c0,19.895 16.128,36.023 36.022,36.023c10.685,0 22.384,0 33.069,0c19.895,0 36.023,-16.128 36.023,-36.023c0,-15.912 0,-34.933 0,-52.383Z" style="fill:#fee4c8;"/><clipPath id="_clip4"><path d="M359.845,55.41c0,-29.027 -23.531,-52.557 -52.557,-52.557c0,0 0,0 -0.001,0c-29.026,0 -52.556,23.53 -52.556,52.557c0,17.45 0,36.471 0,52.383c0,19.895 16.128,36.023 36.022,36.023c10.685,0 22.384,0 33.069,0c19.895,0 36.023,-16.128 36.023,-36.023c0,-15.912 0,-34.933 0,-52.383Z"/></clipPath><g clip-path="url(#_clip4)"><path d="M359.845,2.853l0,117.214c0,13.116 -10.085,23.749 -22.525,23.749l-30.032,0l0,-140.963l52.557,0Z" style="fill:#fee4c8;"/></g><path d="M359.845,55.41c0,-29.027 -23.531,-52.557 -52.557,-52.557c0,0 0,0 -0.001,0c-29.026,0 -52.556,23.53 -52.556,52.557c0,17.45 0,36.471 0,52.383c0,19.895 16.128,36.023 36.022,36.023c10.685,0 22.384,0 33.069,0c19.895,0 36.023,-16.128 36.023,-36.023c0,-15.912 0,-34.933 0,-52.383Z" style="fill:none;stroke:#ccac9a;stroke-width:2px;"/><g><path d="M315.207,67.686c0,8.786 7.884,15.908 17.609,15.908c9.725,0 17.609,-7.122 17.609,-15.908l-17.609,0l-17.609,0Z" style="fill:#f0beba;"/><path d="M317.321,67.686c0,7.659 6.907,13.869 15.426,13.869c8.52,0 15.426,-6.21 15.426,-13.869l-15.426,0l-15.426,0Z" style="fill:#fff7d7;"/><path d="M324.011,67.686c0,4.614 3.942,8.356 8.805,8.356c4.862,0 8.804,-3.742 8.804,-8.356l-8.804,0l-8.805,0Z" style="fill:#cfbe9d;"/></g><g><path d="M264.113,67.686c0,8.786 7.884,15.908 17.609,15.908c9.725,0 17.609,-7.122 17.609,-15.908l-17.609,0l-17.609,0Z" style="fill:#f0beba;"/><path d="M266.227,67.686c0,7.659 6.907,13.869 15.427,13.869c8.519,0 15.426,-6.21 15.426,-13.869l-15.426,0l-15.427,0Z" style="fill:#fff7d7;"/><path d="M272.918,67.686c0,4.614 3.942,8.356 8.804,8.356c4.863,0 8.805,-3.742 8.805,-8.356l-8.805,0l-8.804,0Z" style="fill:#cfbe9d;"/></g><path d="M297.728,67.921c0.048,0.003 0.097,0.005 0.145,0.011c0.145,0.016 0.287,0.049 0.422,0.097c0.135,0.048 0.263,0.111 0.38,0.187c0.156,0.101 0.292,0.226 0.401,0.367c0.135,0.176 0.227,0.378 0.267,0.587c0.008,0.042 0.014,0.084 0.018,0.127c0.007,0.074 0.006,0.145 0.006,0.219c-0.001,0.064 -0.002,0.131 -0.003,0.194c-0.006,0.258 -0.019,0.515 -0.039,0.771c-0.093,1.16 -0.339,2.309 -0.734,3.419c-0.395,1.11 -0.939,2.179 -1.616,3.179c-0.721,1.066 -1.593,2.053 -2.589,2.933c-1.02,0.902 -2.17,1.691 -3.415,2.343c-0.869,0.454 -1.783,0.842 -2.729,1.156c-0.896,0.298 -1.821,0.529 -2.761,0.692c-1.829,0.316 -3.717,0.372 -5.566,0.167c-1.623,-0.181 -3.216,-0.564 -4.715,-1.137c-1.02,-0.39 -1.996,-0.866 -2.91,-1.42c-0.88,-0.532 -1.702,-1.136 -2.454,-1.801c-1.536,-1.357 -2.774,-2.968 -3.625,-4.726c-0.724,-1.495 -1.166,-3.091 -1.307,-4.709c-0.025,-0.288 -0.04,-0.577 -0.047,-0.866c-0.001,-0.068 -0.002,-0.128 -0.003,-0.195c0,-0.074 -0.001,-0.144 0.006,-0.219c0.02,-0.212 0.092,-0.42 0.21,-0.605c0.094,-0.149 0.217,-0.283 0.363,-0.396c0.109,-0.084 0.23,-0.157 0.36,-0.214c0.261,-0.116 0.554,-0.172 0.846,-0.162c0.243,0.009 0.483,0.062 0.701,0.158c0.174,0.076 0.333,0.177 0.468,0.3c0.236,0.214 0.397,0.489 0.455,0.783c0.009,0.042 0.015,0.084 0.019,0.126c0.01,0.096 0.007,0.192 0.008,0.288c0.001,0.052 0.002,0.104 0.003,0.156c0.006,0.155 0.013,0.31 0.024,0.465c0.024,0.33 0.064,0.66 0.118,0.988c0.149,0.886 0.411,1.758 0.781,2.593c0.503,1.134 1.205,2.199 2.072,3.151c0.913,1.003 2.009,1.878 3.235,2.583c1.145,0.658 2.404,1.167 3.721,1.501c1.483,0.377 3.037,0.531 4.579,0.463c1.547,-0.069 3.078,-0.364 4.512,-0.876c1.595,-0.569 3.064,-1.403 4.312,-2.442c1.306,-1.087 2.366,-2.397 3.099,-3.838c0.52,-1.02 0.875,-2.104 1.052,-3.21c0.061,-0.38 0.101,-0.762 0.12,-1.145c0.01,-0.183 0.014,-0.366 0.014,-0.55l0.007,-0.127c0.006,-0.042 0.01,-0.084 0.019,-0.126c0.017,-0.084 0.041,-0.166 0.074,-0.246c0.082,-0.2 0.213,-0.384 0.382,-0.537c0.168,-0.153 0.374,-0.274 0.6,-0.353c0.136,-0.047 0.278,-0.079 0.423,-0.094c0.048,-0.006 0.097,-0.007 0.145,-0.011c0.049,0 0.097,0 0.146,0.001Z" style="fill:#f0beba;fill-rule:nonzero;stroke:#cdac9a;stroke-width:1.5px;stroke-linecap:square;stroke-miterlimit:1.41421;"/><path d="M348.764,67.921c0.049,0.003 0.098,0.005 0.146,0.011c0.144,0.016 0.286,0.049 0.422,0.097c0.135,0.048 0.263,0.111 0.38,0.187c0.156,0.101 0.292,0.226 0.4,0.367c0.136,0.176 0.228,0.378 0.268,0.587c0.008,0.042 0.014,0.084 0.018,0.127c0.007,0.074 0.006,0.145 0.005,0.219c0,0.064 -0.001,0.131 -0.003,0.194c-0.005,0.258 -0.018,0.515 -0.039,0.771c-0.092,1.16 -0.338,2.309 -0.733,3.419c-0.396,1.11 -0.939,2.179 -1.617,3.179c-0.721,1.066 -1.593,2.053 -2.589,2.933c-1.02,0.902 -2.17,1.691 -3.415,2.343c-0.868,0.454 -1.782,0.842 -2.729,1.156c-0.896,0.298 -1.82,0.529 -2.76,0.692c-1.829,0.316 -3.717,0.372 -5.567,0.167c-1.623,-0.181 -3.215,-0.564 -4.715,-1.137c-1.019,-0.39 -1.995,-0.866 -2.91,-1.42c-0.879,-0.532 -1.702,-1.136 -2.454,-1.801c-1.536,-1.357 -2.773,-2.968 -3.625,-4.726c-0.724,-1.495 -1.165,-3.091 -1.306,-4.709c-0.025,-0.288 -0.041,-0.577 -0.047,-0.866c-0.002,-0.068 -0.003,-0.128 -0.003,-0.195c-0.001,-0.074 -0.002,-0.144 0.005,-0.219c0.02,-0.212 0.092,-0.42 0.21,-0.605c0.094,-0.149 0.218,-0.283 0.363,-0.396c0.109,-0.084 0.231,-0.157 0.361,-0.214c0.26,-0.116 0.554,-0.172 0.845,-0.162c0.244,0.009 0.484,0.062 0.701,0.158c0.174,0.076 0.333,0.177 0.468,0.3c0.237,0.214 0.397,0.489 0.456,0.783c0.008,0.042 0.015,0.084 0.019,0.126c0.009,0.096 0.007,0.192 0.008,0.288c0.001,0.052 0.002,0.104 0.003,0.156c0.005,0.155 0.012,0.31 0.024,0.465c0.024,0.33 0.063,0.66 0.118,0.988c0.148,0.886 0.411,1.758 0.781,2.593c0.503,1.134 1.204,2.199 2.071,3.151c0.914,1.003 2.009,1.878 3.235,2.583c1.146,0.658 2.404,1.167 3.721,1.501c1.484,0.377 3.038,0.531 4.58,0.463c1.546,-0.069 3.077,-0.364 4.511,-0.876c1.596,-0.569 3.065,-1.403 4.312,-2.442c1.306,-1.087 2.366,-2.397 3.1,-3.838c0.52,-1.02 0.874,-2.104 1.052,-3.21c0.06,-0.38 0.1,-0.762 0.12,-1.145c0.009,-0.183 0.013,-0.366 0.014,-0.55l0.006,-0.127c0.007,-0.042 0.011,-0.084 0.019,-0.126c0.017,-0.084 0.042,-0.166 0.075,-0.246c0.081,-0.2 0.212,-0.384 0.381,-0.537c0.169,-0.153 0.375,-0.274 0.601,-0.353c0.135,-0.047 0.278,-0.079 0.422,-0.094c0.049,-0.006 0.097,-0.007 0.146,-0.011c0.048,0 0.097,0 0.145,0.001Z" style="fill:#f0beba;fill-rule:nonzero;stroke:#cdac9a;stroke-width:1.5px;stroke-linecap:square;stroke-miterlimit:1.41421;"/><path d="M261.233,67.686c0,0 26.797,0 37.968,0c1.273,0 2.494,-0.506 3.394,-1.406c0.9,-0.9 1.405,-2.121 1.405,-3.394c0,-2.13 0,-4.163 0,-4.163" style="fill:none;stroke:#ccac9a;stroke-width:1.5px;"/><path d="M353.414,67.686c0,0 -26.796,0 -37.967,0c-1.273,0 -2.494,-0.506 -3.394,-1.406c-0.9,-0.9 -1.406,-2.121 -1.406,-3.394c0,-2.13 0,-4.163 0,-4.163" style="fill:none;stroke:#ccac9a;stroke-width:1.5px;"/><path d="M318.599,92.274c0,-1.224 -0.486,-2.398 -1.351,-3.263c-0.866,-0.865 -2.039,-1.351 -3.263,-1.351c-3.909,0 -9.486,0 -13.395,0c-1.224,0 -2.397,0.486 -3.262,1.351c-0.866,0.865 -1.352,2.039 -1.352,3.263c0,2.399 0,5.322 0,7.721c0,1.224 0.486,2.397 1.352,3.263c0.865,0.865 2.038,1.351 3.262,1.351c3.909,0 9.486,0 13.395,0c1.224,0 2.397,-0.486 3.263,-1.351c0.865,-0.866 1.351,-2.039 1.351,-3.263c0,-2.399 0,-5.322 0,-7.721Z" style="fill:#f0beba;stroke:#cdac9a;stroke-width:2px;"/><g><path d="M278.502,114.832c-0.001,0.065 -0.001,0.131 -0.001,0.197c0,9.253 4.504,16.765 10.053,16.765c5.548,0 10.052,-7.512 10.052,-16.765c0,-0.066 0,-0.132 -0.001,-0.197l18.211,0l0,0.094c0,9.253 4.504,16.765 10.052,16.765c5.548,0 10.053,-7.512 10.053,-16.765l0,-0.094l22.738,0l0,30.67c0,11.848 -4.846,23.211 -13.473,31.589c-8.626,8.378 -20.325,13.085 -32.525,13.085c-4.379,0 -8.82,0 -13.2,0c-12.199,0 -23.899,-4.707 -32.525,-13.085c-8.626,-8.378 -13.472,-19.741 -13.472,-31.589l0,-30.67l24.038,0Z" style="fill:#b9a67a;"/><clipPath id="_clip5"><path d="M278.502,114.832c-0.001,0.065 -0.001,0.131 -0.001,0.197c0,9.253 4.504,16.765 10.053,16.765c5.548,0 10.052,-7.512 10.052,-16.765c0,-0.066 0,-0.132 -0.001,-0.197l18.211,0l0,0.094c0,9.253 4.504,16.765 10.052,16.765c5.548,0 10.053,-7.512 10.053,-16.765l0,-0.094l22.738,0l0,30.67c0,11.848 -4.846,23.211 -13.473,31.589c-8.626,8.378 -20.325,13.085 -32.525,13.085c-4.379,0 -8.82,0 -13.2,0c-12.199,0 -23.899,-4.707 -32.525,-13.085c-8.626,-8.378 -13.472,-19.741 -13.472,-31.589l0,-30.67l24.038,0Z"/></clipPath><g clip-path="url(#_clip5)"><path d="M307.503,189.012l0,-31.433" style="fill:none;stroke:#a8917b;stroke-width:1.5px;"/><path d="M314.703,198.918l0,-31.433" style="fill:none;stroke:#a8917b;stroke-width:1.5px;"/><path d="M321.903,208.824l0,-31.433" style="fill:none;stroke:#a8917b;stroke-width:1.5px;"/><path d="M300.303,198.918l0,-31.433" style="fill:none;stroke:#a8917b;stroke-width:1.5px;"/><path d="M293.103,208.824l0,-31.433" style="fill:none;stroke:#a8917b;stroke-width:1.5px;"/></g><path d="M278.502,114.832c-0.001,0.065 -0.001,0.131 -0.001,0.197c0,9.253 4.504,16.765 10.053,16.765c5.548,0 10.052,-7.512 10.052,-16.765c0,-0.066 0,-0.132 -0.001,-0.197l18.211,0l0,0.094c0,9.253 4.504,16.765 10.052,16.765c5.548,0 10.053,-7.512 10.053,-16.765l0,-0.094l22.738,0l0,30.67c0,11.848 -4.846,23.211 -13.473,31.589c-8.626,8.378 -20.325,13.085 -32.525,13.085c-4.379,0 -8.82,0 -13.2,0c-12.199,0 -23.899,-4.707 -32.525,-13.085c-8.626,-8.378 -13.472,-19.741 -13.472,-31.589l0,-30.67l24.038,0Z" style="fill:none;stroke:#a8917b;stroke-width:1.5px;"/></g><g><ellipse cx="307.478" cy="119.334" rx="18.676" ry="12.394" style="fill:#4c4c4c;"/><clipPath id="_clip6"><ellipse cx="307.478" cy="119.334" rx="18.676" ry="12.394"/></clipPath><g clip-path="url(#_clip6)"><ellipse cx="307.835" cy="129.312" rx="12.141" ry="5.483" style="fill:#f0beba;"/></g><ellipse cx="307.478" cy="119.334" rx="18.676" ry="12.394" style="fill:none;stroke:#a9917b;stroke-width:1.5px;"/><path d="M368.8,99.634c0,0 -16.036,8.69 -27.124,3.795c-7.363,-3.25 -15.126,-10.454 -20.127,-10.519c-4.727,-0.061 -7.372,1.031 -9.744,3.009c-2.887,2.408 -4.982,6.162 -5.046,11.156c-0.118,9.098 7.093,16.326 18.778,16.728c5.872,0.203 21.372,-0.651 29.814,-6.648c9.499,-6.748 13.449,-17.521 13.449,-17.521Z" style="fill:#b9a67a;stroke:#a8917b;stroke-width:1.5px;"/><path d="M244.849,99.634c0,0 16.036,8.69 27.124,3.795c7.363,-3.25 15.126,-10.454 20.127,-10.519c4.727,-0.061 7.372,1.031 9.744,3.009c2.887,2.408 4.982,6.162 5.046,11.156c0.118,9.098 -7.093,16.326 -18.778,16.728c-5.872,0.203 -21.372,-0.651 -29.814,-6.648c-9.499,-6.748 -13.449,-17.521 -13.449,-17.521Z" style="fill:#b9a67a;stroke:#a8917b;stroke-width:1.5px;"/></g><path d="M356.834,30.091c-0.59,-16.366 -14.028,-29.328 -30.405,-29.328c-12.911,-0.013 -28.305,-0.013 -40.977,-0.013c-13.824,0 -25.031,11.207 -25.031,25.031c0,0 0,0 0,0c0,4.215 1.918,8.201 5.211,10.831c3.294,2.63 7.605,3.619 11.715,2.687c17.075,-3.862 42.274,-9.157 52.101,-9.157c4.35,0 9.808,-0.144 13.535,1.05c3.538,1.133 7.25,3.707 8.827,6.11c1.714,2.611 2.027,7.667 2.027,7.667c0,0 3.109,-8.897 3.046,-13.472c-0.005,-0.419 -0.022,-0.89 -0.049,-1.406Z" style="fill:#b9a67a;"/><clipPath id="_clip7"><path d="M356.834,30.091c-0.59,-16.366 -14.028,-29.328 -30.405,-29.328c-12.911,-0.013 -28.305,-0.013 -40.977,-0.013c-13.824,0 -25.031,11.207 -25.031,25.031c0,0 0,0 0,0c0,4.215 1.918,8.201 5.211,10.831c3.294,2.63 7.605,3.619 11.715,2.687c17.075,-3.862 42.274,-9.157 52.101,-9.157c4.35,0 9.808,-0.144 13.535,1.05c3.538,1.133 7.25,3.707 8.827,6.11c1.714,2.611 2.027,7.667 2.027,7.667c0,0 3.109,-8.897 3.046,-13.472c-0.005,-0.419 -0.022,-0.89 -0.049,-1.406Z"/></clipPath><g clip-path="url(#_clip7)"><path d="M325.313,8.833l0.019,0l0.055,0.002l0.041,0.001l0.048,0.002l0.057,0.002l0.065,0.002l0.073,0.003l0.08,0.004l0.088,0.005l0.096,0.005l0.103,0.007l0.11,0.007l0.117,0.008l0.124,0.009l0.131,0.011l0.138,0.011l0.143,0.013l0.075,0.007l0.076,0.007l0.078,0.008l0.079,0.008l0.081,0.008l0.083,0.008l0.083,0.009l0.086,0.01l0.087,0.009l0.088,0.011l0.09,0.01l0.091,0.011l0.092,0.011l0.094,0.012l0.096,0.012l0.097,0.013l0.098,0.013l0.099,0.014l0.101,0.014l0.102,0.014l0.103,0.015l0.105,0.016l0.106,0.016l0.107,0.016l0.108,0.017l0.11,0.018l0.111,0.018l0.112,0.018l0.113,0.019l0.114,0.02l0.115,0.02l0.117,0.021l0.118,0.021l0.118,0.022l0.12,0.023l0.121,0.023l0.122,0.024l0.122,0.024l0.124,0.025l0.125,0.026l0.126,0.026l0.126,0.027l0.128,0.027l0.129,0.028l0.129,0.029l0.131,0.03l0.131,0.03l0.132,0.031l0.133,0.032l0.134,0.032l0.134,0.033l0.135,0.034l0.137,0.034l0.136,0.035l0.138,0.036l0.138,0.037l0.14,0.038l0.139,0.038l0.141,0.039l0.141,0.04l0.142,0.04l0.142,0.042l0.143,0.042l0.143,0.043l0.145,0.044l0.144,0.045l0.146,0.045l0.145,0.046l0.147,0.048l0.146,0.048l0.148,0.049l0.148,0.05l0.148,0.05l0.148,0.052l0.149,0.053l0.075,0.026l0.075,0.027l0.075,0.027l0.075,0.028l0.075,0.027l0.075,0.028l0.075,0.028l0.076,0.028l0.075,0.029l0.075,0.028l0.076,0.029l0.076,0.03l0.075,0.029l0.076,0.03l0.076,0.03l0.076,0.03l0.076,0.03l0.076,0.031l0.076,0.031l0.077,0.031l0.076,0.031l0.076,0.032l0.077,0.032l0.076,0.032l0.076,0.032l0.077,0.033l0.077,0.033l0.076,0.033l0.077,0.034l0.077,0.033l0.076,0.034l0.077,0.034l0.077,0.035l0.077,0.035l0.077,0.035l0.077,0.035l0.077,0.035l0.077,0.036l0.077,0.036l0.077,0.036l0.077,0.037l0.077,0.037l0.077,0.037l0.077,0.037l0.077,0.038l0.077,0.038l0.077,0.038l0.077,0.039l0.078,0.038l0.077,0.039l0.077,0.04l0.077,0.039l0.077,0.04l0.077,0.04l0.077,0.041l0.077,0.04l0.077,0.041l0.078,0.042l0.077,0.041l0.077,0.042l0.077,0.042l0.077,0.043l0.077,0.042l0.077,0.043l0.076,0.044l0.077,0.043l0.077,0.044l0.077,0.044l0.077,0.045l0.076,0.045l0.077,0.045l0.077,0.045l0.076,0.046l0.077,0.046l0.076,0.046l0.077,0.046l0.076,0.047l0.076,0.048l0.077,0.047l0.076,0.048l0.076,0.048l0.076,0.048l0.076,0.049l0.076,0.049l0.076,0.049l0.076,0.05l0.076,0.05l0.075,0.05l0.076,0.051l0.075,0.051l0.076,0.051l0.075,0.052l0.075,0.052l0.075,0.052l0.075,0.052l0.075,0.053l0.075,0.053l0.075,0.054l0.075,0.054l0.074,0.054l0.075,0.054l0.074,0.055l0.074,0.055l0.075,0.056l0.074,0.055l0.073,0.056l0.074,0.057l0.074,0.057l0.074,0.057l0.073,0.057l0.073,0.058l0.073,0.058l0.074,0.059l0.072,0.058l0.073,0.06l0.073,0.059l0.072,0.06l0.073,0.06l0.072,0.061l0.072,0.061l0.072,0.061l0.03,0.026l0.042,0.035l0.072,0.062l0.071,0.062l0.072,0.063l0.071,0.062l0.071,0.064l0.071,0.063l0.071,0.064l0.071,0.064l0.07,0.065l0.071,0.065l0.07,0.065l0.07,0.066l0.07,0.066l0.07,0.066l0.069,0.067l0.069,0.067l0.07,0.067l0.068,0.068l0.069,0.069l0.069,0.068l0.068,0.069l0.068,0.069l0.068,0.07l0.068,0.07l0.068,0.071l0.067,0.07l0.067,0.072l0.067,0.071l0.067,0.072l0.067,0.072l0.066,0.073l0.066,0.073l0.066,0.074l0.066,0.073l0.065,0.075l0.066,0.074l0.065,0.075l0.065,0.076l0.064,0.075l0.065,0.076l0.064,0.077l0.064,0.077l0.063,0.077l0.064,0.078l0.063,0.078l0.063,0.078l0.063,0.079l0.062,0.08l0.062,0.079l0.062,0.08l0.062,0.081l0.062,0.081l0.061,0.081l0.061,0.082l0.06,0.082l0.061,0.082l0.06,0.083l0.06,0.083l0.059,0.084l0.06,0.084l0.059,0.084l0.059,0.085l0.058,0.085l0.058,0.086l0.058,0.086l0.058,0.087l0.057,0.087l0.058,0.087l0.056,0.088l0.057,0.088l0.056,0.088l0.056,0.089l0.056,0.09l0.055,0.09l0.055,0.09l0.055,0.091l0.054,0.091l0.054,0.091l0.054,0.092l0.053,0.092l0.054,0.093l0.052,0.093l0.053,0.094l0.052,0.094l0.052,0.095l0.052,0.094l0.051,0.096l0.051,0.096l0.05,0.096l0.051,0.096l0.049,0.097l0.05,0.098l0.049,0.098l0.049,0.098l0.049,0.099l0.048,0.099l0.048,0.1l0.047,0.1l0.047,0.101l0.047,0.101l0.047,0.101l0.046,0.102l0.045,0.102l0.046,0.103l0.045,0.103l0.044,0.104l0.045,0.104l0.043,0.104l0.044,0.105l0.043,0.106l0.043,0.106l0.042,0.106l0.042,0.107l0.042,0.107l0.041,0.108l0.041,0.108l0.04,0.108l0.04,0.109l0.04,0.11l0.039,0.11l0.039,0.11l0.039,0.111l0.038,0.112l0.038,0.111l0.037,0.113l0.037,0.112l0.036,0.114l0.036,0.113l0.036,0.114l0.035,0.115l0.035,0.115l0.034,0.116l0.034,0.116l0.034,0.116l0.033,0.117l0.033,0.117l0.032,0.118l0.032,0.119l0.031,0.119l0.031,0.119l0.031,0.12l0.03,0.12l0.029,0.121l0.029,0.121l0.029,0.122l0.029,0.122l0.027,0.122l0.028,0.124l0.027,0.123l0.026,0.124l0.026,0.125l0.026,0.125l0.025,0.125l0.025,0.127l0.024,0.126l0.024,0.127l0.023,0.128l0.023,0.128l0.022,0.128l0.022,0.129l0.021,0.13l0.021,0.13l0.021,0.13l0.02,0.13l-0.258,0.354l-0.354,-0.258l-0.02,-0.129l-0.021,-0.128l-0.022,-0.127l-0.022,-0.127l-0.022,-0.126l-0.023,-0.126l-0.023,-0.125l-0.024,-0.125l-0.024,-0.124l-0.025,-0.124l-0.025,-0.123l-0.025,-0.123l-0.026,-0.122l-0.027,-0.122l-0.027,-0.121l-0.027,-0.121l-0.028,-0.12l-0.028,-0.12l-0.028,-0.119l-0.029,-0.119l-0.03,-0.118l-0.03,-0.118l-0.03,-0.117l-0.031,-0.117l-0.031,-0.116l-0.031,-0.116l-0.032,-0.116l-0.033,-0.115l-0.032,-0.114l-0.034,-0.114l-0.033,-0.113l-0.034,-0.113l-0.035,-0.113l-0.034,-0.112l-0.036,-0.111l-0.035,-0.112l-0.036,-0.11l-0.037,-0.11l-0.036,-0.11l-0.038,-0.109l-0.037,-0.109l-0.038,-0.108l-0.038,-0.108l-0.039,-0.107l-0.039,-0.107l-0.04,-0.107l-0.04,-0.106l-0.04,-0.105l-0.04,-0.105l-0.041,-0.105l-0.042,-0.104l-0.041,-0.104l-0.042,-0.103l-0.043,-0.103l-0.042,-0.102l-0.043,-0.102l-0.044,-0.101l-0.044,-0.101l-0.044,-0.101l-0.044,-0.1l-0.045,-0.099l-0.046,-0.099l-0.045,-0.099l-0.046,-0.098l-0.046,-0.098l-0.047,-0.098l-0.047,-0.097l-0.047,-0.096l-0.047,-0.096l-0.048,-0.096l-0.048,-0.095l-0.049,-0.095l-0.049,-0.094l-0.049,-0.094l-0.05,-0.094l-0.049,-0.093l-0.051,-0.092l-0.05,-0.093l-0.051,-0.091l-0.051,-0.092l-0.051,-0.091l-0.052,-0.09l-0.052,-0.09l-0.052,-0.09l-0.053,-0.089l-0.053,-0.089l-0.053,-0.088l-0.053,-0.088l-0.054,-0.088l-0.054,-0.087l-0.054,-0.087l-0.055,-0.086l-0.055,-0.086l-0.055,-0.085l-0.055,-0.086l-0.056,-0.084l-0.056,-0.085l-0.056,-0.083l-0.057,-0.084l-0.057,-0.083l-0.057,-0.083l-0.057,-0.082l-0.058,-0.082l-0.058,-0.081l-0.058,-0.081l-0.058,-0.081l-0.059,-0.08l-0.059,-0.08l-0.059,-0.08l-0.059,-0.079l-0.06,-0.078l-0.06,-0.079l-0.06,-0.078l-0.061,-0.077l-0.06,-0.077l-0.061,-0.077l-0.061,-0.076l-0.062,-0.076l-0.061,-0.076l-0.062,-0.075l-0.062,-0.075l-0.062,-0.074l-0.063,-0.074l-0.062,-0.074l-0.063,-0.073l-0.064,-0.073l-0.063,-0.073l-0.063,-0.072l-0.064,-0.072l-0.064,-0.071l-0.065,-0.071l-0.064,-0.071l-0.065,-0.07l-0.064,-0.07l-0.065,-0.07l-0.066,-0.069l-0.065,-0.069l-0.066,-0.068l-0.066,-0.069l-0.066,-0.067l-0.066,-0.068l-0.066,-0.067l-0.067,-0.066l-0.067,-0.067l-0.067,-0.066l-0.067,-0.065l-0.067,-0.066l-0.067,-0.065l-0.068,-0.064l-0.068,-0.064l-0.068,-0.064l-0.068,-0.064l-0.069,-0.063l-0.068,-0.063l-0.069,-0.062l-0.069,-0.062l-0.069,-0.062l-0.069,-0.061l-0.069,-0.061l-0.069,-0.061l-0.07,-0.06l-0.07,-0.06l-0.07,-0.06l-0.07,-0.06l-0.04,-0.034l-0.03,-0.024l-0.07,-0.059l-0.071,-0.058l-0.071,-0.058l-0.071,-0.058l-0.071,-0.057l-0.071,-0.057l-0.071,-0.056l-0.072,-0.056l-0.071,-0.056l-0.072,-0.056l-0.072,-0.055l-0.071,-0.055l-0.072,-0.054l-0.073,-0.055l-0.072,-0.054l-0.072,-0.053l-0.073,-0.053l-0.072,-0.053l-0.073,-0.053l-0.073,-0.052l-0.072,-0.052l-0.073,-0.052l-0.073,-0.051l-0.074,-0.051l-0.073,-0.051l-0.073,-0.05l-0.074,-0.051l-0.073,-0.049l-0.074,-0.05l-0.074,-0.049l-0.073,-0.049l-0.074,-0.048l-0.074,-0.049l-0.074,-0.048l-0.074,-0.047l-0.074,-0.048l-0.075,-0.047l-0.074,-0.046l-0.074,-0.047l-0.075,-0.046l-0.074,-0.046l-0.075,-0.045l-0.074,-0.046l-0.075,-0.045l-0.075,-0.044l-0.075,-0.045l-0.074,-0.044l-0.075,-0.043l-0.075,-0.044l-0.075,-0.043l-0.075,-0.043l-0.075,-0.043l-0.075,-0.042l-0.076,-0.042l-0.075,-0.042l-0.075,-0.041l-0.075,-0.041l-0.075,-0.041l-0.076,-0.041l-0.075,-0.04l-0.075,-0.04l-0.076,-0.04l-0.075,-0.04l-0.075,-0.039l-0.076,-0.039l-0.075,-0.039l-0.076,-0.038l-0.075,-0.038l-0.076,-0.038l-0.075,-0.038l-0.075,-0.037l-0.076,-0.037l-0.075,-0.037l-0.076,-0.036l-0.075,-0.037l-0.076,-0.036l-0.075,-0.035l-0.076,-0.036l-0.075,-0.035l-0.075,-0.035l-0.076,-0.035l-0.075,-0.034l-0.076,-0.034l-0.075,-0.034l-0.075,-0.034l-0.075,-0.033l-0.076,-0.034l-0.075,-0.032l-0.075,-0.033l-0.075,-0.032l-0.075,-0.033l-0.075,-0.032l-0.075,-0.031l-0.075,-0.032l-0.075,-0.031l-0.075,-0.031l-0.075,-0.03l-0.075,-0.031l-0.075,-0.03l-0.074,-0.03l-0.075,-0.03l-0.075,-0.029l-0.074,-0.029l-0.075,-0.029l-0.074,-0.029l-0.074,-0.028l-0.075,-0.029l-0.074,-0.028l-0.074,-0.028l-0.074,-0.027l-0.074,-0.027l-0.074,-0.028l-0.074,-0.026l-0.073,-0.027l-0.074,-0.027l-0.073,-0.026l-0.074,-0.026l-0.073,-0.026l-0.074,-0.025l-0.073,-0.025l-0.073,-0.025l-0.146,-0.05l-0.145,-0.049l-0.145,-0.047l-0.145,-0.047l-0.144,-0.046l-0.144,-0.046l-0.143,-0.044l-0.143,-0.044l-0.142,-0.042l-0.141,-0.042l-0.142,-0.041l-0.14,-0.041l-0.14,-0.039l-0.139,-0.039l-0.139,-0.038l-0.138,-0.037l-0.138,-0.037l-0.136,-0.035l-0.136,-0.035l-0.136,-0.034l-0.134,-0.034l-0.134,-0.033l-0.134,-0.032l-0.132,-0.031l-0.132,-0.031l-0.131,-0.03l-0.13,-0.029l-0.129,-0.029l-0.128,-0.028l-0.128,-0.027l-0.126,-0.027l-0.126,-0.026l-0.125,-0.025l-0.124,-0.025l-0.123,-0.024l-0.122,-0.023l-0.121,-0.023l-0.12,-0.023l-0.119,-0.021l-0.118,-0.022l-0.117,-0.02l-0.116,-0.02l-0.115,-0.02l-0.114,-0.019l-0.113,-0.018l-0.111,-0.018l-0.111,-0.017l-0.109,-0.017l-0.108,-0.016l-0.107,-0.016l-0.106,-0.015l-0.105,-0.015l-0.103,-0.015l-0.102,-0.013l-0.101,-0.014l-0.1,-0.013l-0.098,-0.012l-0.097,-0.012l-0.095,-0.012l-0.095,-0.011l-0.093,-0.011l-0.091,-0.01l-0.09,-0.01l-0.089,-0.01l-0.088,-0.009l-0.086,-0.009l-0.084,-0.008l-0.083,-0.008l-0.082,-0.008l-0.08,-0.008l-0.078,-0.007l-0.077,-0.006l-0.075,-0.007l-0.074,-0.006l-0.072,-0.006l-0.14,-0.01l-0.133,-0.01l-0.127,-0.008l-0.12,-0.008l-0.113,-0.007l-0.105,-0.005l-0.099,-0.005l-0.091,-0.004l-0.084,-0.004l-0.077,-0.002l-0.068,-0.003l-0.061,-0.001l-0.033,-0.001l-0.02,-0.001l-0.045,-0.001l-0.036,0l-0.049,-0.001l-0.016,0l-0.003,0l-0.349,-0.151l-0.143,-0.352l0,-0.005l0.151,-0.349l0.352,-0.143l0.003,0Z" style="fill:#a8917b;"/><path d="M328.634,15.299l0.098,0.001l0.099,0.001l0.099,0.001l0.1,0.001l0.1,0.002l0.101,0.002l0.102,0.003l0.101,0.003l0.103,0.003l0.103,0.004l0.103,0.005l0.104,0.004l0.105,0.006l0.104,0.005l0.106,0.006l0.105,0.007l0.107,0.007l0.106,0.008l0.107,0.008l0.108,0.008l0.108,0.009l0.108,0.01l0.109,0.01l0.109,0.01l0.109,0.012l0.11,0.011l0.11,0.012l0.111,0.013l0.11,0.014l0.112,0.013l0.111,0.015l0.112,0.015l0.112,0.016l0.112,0.016l0.113,0.017l0.113,0.017l0.113,0.018l0.113,0.019l0.114,0.02l0.114,0.02l0.114,0.02l0.114,0.022l0.115,0.022l0.114,0.022l0.115,0.024l0.115,0.024l0.116,0.025l0.115,0.025l0.116,0.026l0.115,0.027l0.116,0.028l0.116,0.028l0.116,0.029l0.116,0.03l0.116,0.031l0.117,0.031l0.116,0.032l0.058,0.017l0.059,0.016l0.058,0.017l0.058,0.017l0.058,0.017l0.059,0.018l0.058,0.017l0.058,0.018l0.059,0.018l0.058,0.018l0.058,0.019l0.059,0.018l0.058,0.019l0.058,0.019l0.059,0.019l0.058,0.02l0.058,0.019l0.059,0.02l0.058,0.02l0.058,0.021l0.058,0.02l0.059,0.021l0.058,0.021l0.058,0.021l0.059,0.021l0.058,0.022l0.058,0.022l0.058,0.022l0.058,0.022l0.059,0.022l0.058,0.023l0.058,0.023l0.058,0.023l0.058,0.024l0.058,0.023l0.058,0.024l0.058,0.024l0.058,0.024l0.058,0.025l0.046,0.019l0.012,0.006l0.058,0.024l0.058,0.025l0.058,0.026l0.058,0.025l0.058,0.026l0.058,0.026l0.058,0.026l0.057,0.027l0.058,0.026l0.058,0.027l0.057,0.028l0.058,0.027l0.057,0.028l0.058,0.028l0.057,0.028l0.058,0.028l0.057,0.029l0.057,0.029l0.058,0.029l0.057,0.029l0.057,0.03l0.057,0.03l0.057,0.03l0.057,0.031l0.057,0.03l0.057,0.031l0.057,0.031l0.056,0.032l0.057,0.032l0.057,0.032l0.056,0.032l0.057,0.032l0.056,0.033l0.056,0.033l0.057,0.034l0.056,0.033l0.056,0.034l0.056,0.034l0.056,0.034l0.056,0.035l0.056,0.035l0.056,0.035l0.055,0.036l0.056,0.035l0.055,0.036l0.056,0.037l0.055,0.036l0.055,0.037l0.055,0.037l0.055,0.038l0.055,0.037l0.055,0.038l0.055,0.039l0.055,0.038l0.054,0.039l0.055,0.039l0.054,0.039l0.055,0.04l0.054,0.04l0.054,0.04l0.054,0.041l0.054,0.041l0.054,0.041l0.053,0.041l0.054,0.042l0.053,0.042l0.054,0.042l0.053,0.043l0.053,0.043l0.053,0.043l0.053,0.043l0.053,0.044l0.052,0.044l0.053,0.044l0.052,0.045l0.053,0.045l0.052,0.045l0.052,0.046l0.052,0.046l0.052,0.046l0.052,0.047l0.051,0.046l0.052,0.047l0.051,0.048l0.051,0.048l0.051,0.048l0.051,0.048l0.051,0.049l0.05,0.049l0.051,0.049l0.05,0.05l0.05,0.05l0.051,0.05l0.049,0.05l0.05,0.051l0.05,0.051l0.049,0.052l0.05,0.052l0.049,0.052l0.049,0.052l0.049,0.053l0.049,0.053l0.048,0.054l0.049,0.054l0.048,0.054l0.048,0.054l0.048,0.055l0.048,0.055l0.048,0.056l0.047,0.055l0.047,0.056l0.047,0.057l0.047,0.057l0.047,0.057l0.047,0.057l0.046,0.058l0.047,0.058l0.046,0.058l0.046,0.059l0.046,0.059l0.045,0.06l0.046,0.06l0.045,0.06l0.045,0.06l0.045,0.061l0.045,0.061l0.044,0.062l0.045,0.062l0.044,0.062l0.044,0.062l0.044,0.063l0.043,0.064l0.044,0.063l0.043,0.064l0.043,0.065l0.043,0.064l0.042,0.065l0.043,0.066l0.042,0.065l0.042,0.066l0.042,0.067l0.042,0.067l0.041,0.067l0.041,0.067l0.041,0.068l0.041,0.068l0.041,0.069l0.04,0.069l0.041,0.069l0.04,0.07l0.04,0.07l0.039,0.07l0.04,0.071l0.039,0.071l0.039,0.072l0.038,0.072l0.039,0.072l0.038,0.073l0.038,0.073l0.038,0.073l0.038,0.074l0.037,0.074l0.037,0.074l0.037,0.075l0.037,0.076l0.037,0.075l0.036,0.076l0.036,0.076l-0.145,0.413l-0.413,-0.146l-0.036,-0.074l-0.036,-0.073l-0.036,-0.073l-0.037,-0.072l-0.036,-0.072l-0.037,-0.072l-0.037,-0.071l-0.037,-0.071l-0.038,-0.07l-0.037,-0.07l-0.038,-0.07l-0.038,-0.07l-0.038,-0.069l-0.039,-0.068l-0.038,-0.068l-0.039,-0.068l-0.039,-0.068l-0.039,-0.067l-0.039,-0.067l-0.04,-0.066l-0.04,-0.066l-0.04,-0.066l-0.04,-0.065l-0.04,-0.065l-0.041,-0.064l-0.04,-0.065l-0.041,-0.063l-0.041,-0.064l-0.041,-0.063l-0.042,-0.063l-0.041,-0.062l-0.042,-0.062l-0.042,-0.062l-0.042,-0.061l-0.042,-0.061l-0.043,-0.061l-0.042,-0.06l-0.043,-0.06l-0.043,-0.06l-0.043,-0.059l-0.043,-0.059l-0.044,-0.059l-0.043,-0.058l-0.044,-0.058l-0.044,-0.057l-0.044,-0.058l-0.044,-0.057l-0.045,-0.056l-0.044,-0.056l-0.045,-0.056l-0.045,-0.056l-0.045,-0.055l-0.045,-0.055l-0.045,-0.054l-0.046,-0.054l-0.046,-0.054l-0.045,-0.054l-0.046,-0.053l-0.046,-0.053l-0.047,-0.053l-0.046,-0.052l-0.046,-0.052l-0.047,-0.051l-0.047,-0.052l-0.047,-0.051l-0.047,-0.05l-0.047,-0.05l-0.047,-0.05l-0.048,-0.05l-0.048,-0.049l-0.047,-0.05l-0.048,-0.048l-0.048,-0.049l-0.048,-0.048l-0.049,-0.048l-0.048,-0.047l-0.049,-0.047l-0.048,-0.047l-0.049,-0.047l-0.049,-0.046l-0.049,-0.046l-0.049,-0.046l-0.049,-0.045l-0.05,-0.045l-0.049,-0.045l-0.05,-0.044l-0.05,-0.044l-0.05,-0.044l-0.05,-0.044l-0.05,-0.043l-0.05,-0.043l-0.05,-0.043l-0.051,-0.042l-0.05,-0.042l-0.051,-0.042l-0.051,-0.041l-0.051,-0.042l-0.051,-0.04l-0.051,-0.041l-0.051,-0.04l-0.051,-0.041l-0.051,-0.039l-0.052,-0.04l-0.052,-0.039l-0.051,-0.039l-0.052,-0.039l-0.052,-0.038l-0.052,-0.038l-0.052,-0.038l-0.052,-0.037l-0.052,-0.038l-0.053,-0.037l-0.052,-0.036l-0.053,-0.037l-0.052,-0.036l-0.053,-0.036l-0.053,-0.036l-0.053,-0.035l-0.053,-0.035l-0.053,-0.035l-0.053,-0.035l-0.053,-0.034l-0.053,-0.034l-0.054,-0.034l-0.053,-0.033l-0.054,-0.033l-0.053,-0.033l-0.054,-0.033l-0.054,-0.033l-0.053,-0.032l-0.054,-0.032l-0.054,-0.031l-0.054,-0.032l-0.054,-0.031l-0.054,-0.031l-0.055,-0.031l-0.054,-0.03l-0.054,-0.03l-0.055,-0.03l-0.054,-0.03l-0.055,-0.029l-0.054,-0.03l-0.055,-0.029l-0.055,-0.028l-0.054,-0.029l-0.055,-0.028l-0.055,-0.028l-0.055,-0.028l-0.055,-0.027l-0.055,-0.027l-0.055,-0.027l-0.055,-0.027l-0.055,-0.027l-0.056,-0.026l-0.055,-0.026l-0.055,-0.026l-0.056,-0.026l-0.055,-0.025l-0.055,-0.025l-0.056,-0.025l-0.055,-0.025l-0.056,-0.024l-0.056,-0.024l-0.055,-0.024l-0.056,-0.024l-0.056,-0.024l-0.055,-0.023l-0.056,-0.023l-0.012,-0.005l-0.044,-0.018l-0.056,-0.022l-0.056,-0.023l-0.056,-0.022l-0.056,-0.022l-0.056,-0.021l-0.056,-0.022l-0.056,-0.021l-0.056,-0.021l-0.056,-0.02l-0.056,-0.021l-0.056,-0.02l-0.056,-0.02l-0.057,-0.02l-0.056,-0.02l-0.056,-0.019l-0.056,-0.02l-0.056,-0.019l-0.056,-0.018l-0.057,-0.019l-0.056,-0.019l-0.056,-0.018l-0.056,-0.018l-0.057,-0.018l-0.056,-0.017l-0.056,-0.018l-0.056,-0.017l-0.057,-0.017l-0.056,-0.017l-0.056,-0.016l-0.056,-0.017l-0.057,-0.016l-0.056,-0.016l-0.056,-0.016l-0.056,-0.016l-0.057,-0.015l-0.056,-0.016l-0.056,-0.015l-0.056,-0.015l-0.056,-0.014l-0.113,-0.029l-0.112,-0.028l-0.112,-0.028l-0.112,-0.026l-0.112,-0.026l-0.112,-0.026l-0.112,-0.024l-0.111,-0.024l-0.112,-0.023l-0.111,-0.023l-0.111,-0.022l-0.111,-0.021l-0.111,-0.02l-0.111,-0.02l-0.111,-0.019l-0.11,-0.019l-0.11,-0.018l-0.11,-0.017l-0.11,-0.017l-0.109,-0.016l-0.109,-0.016l-0.109,-0.014l-0.109,-0.015l-0.109,-0.013l-0.108,-0.014l-0.108,-0.012l-0.108,-0.012l-0.107,-0.012l-0.107,-0.011l-0.107,-0.01l-0.106,-0.01l-0.106,-0.009l-0.106,-0.009l-0.105,-0.008l-0.105,-0.008l-0.105,-0.008l-0.104,-0.007l-0.104,-0.006l-0.104,-0.006l-0.103,-0.005l-0.102,-0.005l-0.102,-0.005l-0.102,-0.004l-0.102,-0.003l-0.1,-0.004l-0.101,-0.003l-0.1,-0.002l-0.099,-0.002l-0.099,-0.001l-0.099,-0.002l-0.098,-0.001l-0.097,0l-0.097,0l-0.097,0l-0.095,0.001l-0.096,0.001l-0.094,0.001l-0.095,0.002l-0.093,0.002l-0.093,0.002l-0.093,0.003l-0.091,0.003l-0.092,0.003l-0.09,0.003l-0.09,0.004l-0.089,0.004l-0.089,0.005l-0.088,0.004l-0.087,0.005l-0.087,0.005l-0.086,0.005l-0.085,0.006l-0.085,0.006l-0.083,0.006l-0.083,0.006l-0.083,0.006l-0.081,0.007l-0.081,0.007l-0.08,0.007l-0.08,0.007l-0.078,0.007l-0.078,0.008l-0.077,0.007l-0.076,0.008l-0.075,0.008l-0.075,0.008l-0.073,0.008l-0.073,0.008l-0.072,0.008l-0.071,0.009l-0.07,0.008l-0.07,0.009l-0.068,0.009l-0.067,0.008l-0.133,0.018l-0.129,0.018l-0.125,0.018l-0.121,0.018l-0.117,0.018l-0.113,0.018l-0.109,0.018l-0.105,0.017l-0.101,0.018l-0.096,0.017l-0.092,0.017l-0.088,0.016l-0.083,0.016l-0.079,0.016l-0.074,0.014l-0.069,0.015l-0.064,0.013l-0.06,0.013l-0.054,0.012l-0.05,0.011l-0.044,0.01l-0.063,0.014l-0.011,0.003l-0.052,0.012l-0.031,0.008l-0.01,0.002l-0.002,0.001l-0.376,-0.06l-0.225,-0.306l-0.002,-0.005l0.06,-0.375l0.307,-0.226l0.002,-0.001l0.013,-0.003l0.037,-0.008l0.06,-0.013l0.012,-0.003l0.068,-0.014l0.049,-0.01l0.053,-0.011l0.059,-0.012l0.064,-0.012l0.068,-0.013l0.074,-0.014l0.078,-0.014l0.083,-0.015l0.087,-0.015l0.093,-0.015l0.096,-0.016l0.101,-0.016l0.106,-0.017l0.109,-0.016l0.114,-0.017l0.118,-0.016l0.123,-0.017l0.126,-0.016l0.13,-0.017l0.134,-0.016l0.137,-0.016l0.07,-0.008l0.072,-0.007l0.072,-0.008l0.073,-0.007l0.073,-0.008l0.075,-0.007l0.076,-0.007l0.076,-0.007l0.077,-0.007l0.079,-0.007l0.078,-0.007l0.08,-0.006l0.081,-0.006l0.081,-0.006l0.083,-0.006l0.083,-0.006l0.083,-0.006l0.085,-0.005l0.085,-0.005l0.086,-0.005l0.087,-0.004l0.088,-0.005l0.088,-0.004l0.089,-0.004l0.089,-0.004l0.091,-0.003l0.091,-0.003l0.092,-0.003l0.092,-0.002l0.093,-0.003l0.094,-0.002l0.094,-0.001l0.095,-0.002l0.096,-0.001l0.096,0l0.097,-0.001l0.097,0Z" style="fill:#a8917b;"/></g><path d="M356.834,30.091c-0.59,-16.366 -14.028,-29.328 -30.405,-29.328c-12.911,-0.013 -28.305,-0.013 -40.977,-0.013c-13.824,0 -25.031,11.207 -25.031,25.031c0,0 0,0 0,0c0,4.215 1.918,8.201 5.211,10.831c3.294,2.63 7.605,3.619 11.715,2.687c17.075,-3.862 42.274,-9.157 52.101,-9.157c4.35,0 9.808,-0.144 13.535,1.05c3.538,1.133 7.25,3.707 8.827,6.11c1.714,2.611 2.027,7.667 2.027,7.667c0,0 3.109,-8.897 3.046,-13.472c-0.005,-0.419 -0.022,-0.89 -0.049,-1.406Z" style="fill:none;stroke:#a8917b;stroke-width:1.5px;"/></g><g id="laptop"><path d="M389.117,184.848c0.01,-0.253 -0.083,-0.499 -0.259,-0.681c-0.175,-0.182 -0.417,-0.285 -0.67,-0.285c-12.77,0 -148.092,0 -160.884,0c-0.253,0 -0.496,0.104 -0.671,0.287c-0.175,0.182 -0.269,0.429 -0.258,0.682c0.436,10.449 4.263,102.136 4.682,112.174c0.021,0.498 0.431,0.891 0.929,0.891c11.939,0 139.952,0 151.911,0c0.499,0 0.909,-0.395 0.929,-0.894c0.384,-10.056 3.892,-101.742 4.291,-112.174Z" style="fill:url(#_Linear8);stroke:#858585;stroke-width:1.5px;"/><path d="M384.791,303.803c0,0.514 -0.416,0.93 -0.929,0.93c-12.158,0 -139.68,0 -151.838,0c-0.514,0 -0.93,-0.416 -0.93,-0.93c0,-1.302 0,-3.655 0,-4.958c0,-0.513 0.416,-0.929 0.93,-0.929c12.158,0 139.68,0 151.838,0c0.513,0 0.929,0.416 0.929,0.929c0,1.303 0,3.656 0,4.958Z" style="fill:#e0e0e0;stroke:#858585;stroke-width:1.5px;"/><g id="js.-logo"><rect x="290.126" y="223.645" width="33.714" height="34.507" style="fill:#f0db0d;"/><text x="302.894px" y="254.774px" style="font-family:'P22JohnstonUnderground', 'P22 Johnston Underground', sans-serif;font-size:20.634px;fill:#2b2b2b;">JS</text></g><g id="react-logo"><ellipse cx="270.384" cy="240.899" rx="2.401" ry="2.348" style="fill:#97cdd4;"/><ellipse cx="270.384" cy="240.899" rx="6.091" ry="13.972" style="fill:none;stroke:#97cdd4;stroke-width:1.5px;"/><path d="M283.404,246.656c-1.385,2.995 -8.344,2.847 -15.529,-0.331c-7.186,-3.177 -11.896,-8.189 -10.51,-11.183c1.385,-2.995 8.343,-2.847 15.529,0.331c7.186,3.178 11.895,8.189 10.51,11.183Z" style="fill:none;stroke:#97cdd4;stroke-width:1.5px;"/><path d="M258.411,248.524c-1.835,-2.754 2.041,-8.407 8.649,-12.615c6.609,-4.208 13.464,-5.389 15.298,-2.635c1.835,2.754 -2.041,8.407 -8.65,12.615c-6.608,4.209 -13.463,5.389 -15.297,2.635Z" style="fill:none;stroke:#97cdd4;stroke-width:1.5px;"/><path d="M258.411,248.524c-1.835,-2.754 2.041,-8.407 8.649,-12.615c6.609,-4.208 13.464,-5.389 15.298,-2.635c1.835,2.754 -2.041,8.407 -8.65,12.615c-6.608,4.209 -13.463,5.389 -15.297,2.635Z" style="fill:none;stroke:#97cdd4;stroke-width:1.5px;"/></g><g id="webpack"><path d="M344.405,225.378l13.498,7.793l0,15.587l-13.498,7.793l-13.498,-7.793l0,-15.587l13.498,-7.793Z" style="fill:#b2c7e8;"/><path d="M344.405,232.8l7.07,4.082l0,8.165l-7.07,4.082l-7.071,-4.082l0,-8.165l7.071,-4.082Z" style="fill:#9bb3d8;"/></g></g></g><defs><linearGradient id="_Linear8" x1="0" y1="0" x2="1" y2="0" gradientUnits="userSpaceOnUse" gradientTransform="matrix(108.48,139.545,-139.545,108.48,276.311,155.325)"><stop offset="0" style="stop-color:#dadada;stop-opacity:1"/><stop offset="0.28" style="stop-color:#dfdde2;stop-opacity:1"/><stop offset="0.5" style="stop-color:#f2e8ff;stop-opacity:1"/><stop offset="0.58" style="stop-color:#e9e3f0;stop-opacity:1"/><stop offset="0.68" style="stop-color:#e1dfe3;stop-opacity:1"/><stop offset="1" style="stop-color:#dedede;stop-opacity:1"/></linearGradient></defs></svg>