<svg xmlns="http://www.w3.org/2000/svg" viewBox="0 0 100.39 82.22"><title>Asset 12</title><g id="Layer_2" data-name="Layer 2"><g id="Artwork"><path d="M30.48,16.16,30,16l-.51-.14c-.41-.14-.89-.36-.84-.86v-.14l.14,0a10.5,10.5,0,0,1,1.06.29c.4.13.79.29,1.2.45l1,.39h0l.14,0,.35.1.35.1c.32.11.68.28.72.68V17l0,0a.49.49,0,0,1-.51.06l-.2-.08L32.72,17l-.41-.12-.39-.12-.29-.11c-.43,1.59-1.16,3.66-1.81,5.49-.15.43-.29.85-.44,1.24h0l-.08.23a1.09,1.09,0,0,1-.29.61l0,0h0a.55.55,0,0,1-.19,0,.29.29,0,0,1-.2-.17.72.72,0,0,1,.05-.54.46.46,0,0,0,0-.11c1-2.59,1.62-4.69,2.29-7A1.77,1.77,0,0,0,30.48,16.16Z" style="fill:#a69c90"/><path d="M33.52,19.86a6.73,6.73,0,0,1,1.33-1.62A3.39,3.39,0,0,1,36,17.61a2.58,2.58,0,0,1,1.56,0,3.92,3.92,0,0,1,1,.46,2.23,2.23,0,0,1,.7.71h0a4,4,0,0,1,.39,1A4.56,4.56,0,0,1,39.85,21a5.27,5.27,0,0,1-.46,1.5c0,.11-.1.23-.14.33-.81,2-1.69,3.26-2.59,3.63a2.81,2.81,0,0,1-1.74,0l-.11,0a3.23,3.23,0,0,1-1.18-.68,2.9,2.9,0,0,1-.72-1,5,5,0,0,1-.23-2.7A6.51,6.51,0,0,1,33.52,19.86ZM33.42,24A2.42,2.42,0,0,0,35,25.76a2.66,2.66,0,0,0,.6.12,2,2,0,0,0,1.69-1,10.31,10.31,0,0,0,1.17-2.32c.07-.18.16-.35.22-.52a3.87,3.87,0,0,0,.39-1.17h0a3,3,0,0,0-.73-2.23,1.87,1.87,0,0,0-.58-.31,3,3,0,0,0-1.27-.12,4.47,4.47,0,0,0-2.39,2.23A5.39,5.39,0,0,0,33.42,24Z" style="fill:#a69c90"/><path d="M40,25.44a24.19,24.19,0,0,1,1.42-5.57l.25-.76,0-.07h.08a.63.63,0,0,1,.28,0,.4.4,0,0,1,.25.21,1.29,1.29,0,0,1,0,.82A8.92,8.92,0,0,1,42,21c-.06.16-.11.29-.15.42-.13.4-.25.75-.37,1.09a9.15,9.15,0,0,0-.65,2.88c0,.13,0,.26,0,.4a4.35,4.35,0,0,0,.06,1.47,1.54,1.54,0,0,0,.86.76,1.05,1.05,0,0,0,.34,0c.61,0,1.31-.75,1.74-1.46h0a18.7,18.7,0,0,0,2.22-5h0a2.27,2.27,0,0,0,.06-.26,1.08,1.08,0,0,1,.38-.77l0,0h0a.51.51,0,0,1,.4.3c.17.37-.09,1-.28,1.42l0,.15a31.2,31.2,0,0,1-1.82,4.1,4.57,4.57,0,0,1-1.78,2,2.11,2.11,0,0,1-1.6.07,2,2,0,0,1-1.33-1.26A6.81,6.81,0,0,1,40,25.55Z" style="fill:#a69c90"/><path d="M46.38,26.28a9.58,9.58,0,0,1,.82-2A4.75,4.75,0,0,1,50,21.69h0a2.68,2.68,0,0,1,.54.13,3.1,3.1,0,0,1,1.23.76,1.41,1.41,0,0,1,.5,1.06v.12h-.12a.69.69,0,0,1-.22,0,.67.67,0,0,1-.4-.41.81.81,0,0,0-.15-.25h0a1.38,1.38,0,0,0-.67-.49,1.12,1.12,0,0,0-1.07.19h0a4.56,4.56,0,0,0-2,2.28,7.45,7.45,0,0,0-.76,3.37,3.74,3.74,0,0,0,.77,1.49,1.4,1.4,0,0,0,.3.15,3,3,0,0,0,.86.1H49l.17-.16c.3-.29.5-.48.69-.41s.23.13.25.25-.22.44-.56.69l-.17.13,0,0,0,0a2.94,2.94,0,0,1-1.68,0,1.43,1.43,0,0,1-.67-.42,4.28,4.28,0,0,1-.8-2h0A6.35,6.35,0,0,1,46.38,26.28Z" style="fill:#a69c90"/><path d="M51.34,30.47c.55-2.14,1.5-5,2.23-7l0-.06.06,0a.37.37,0,0,1,.22,0,.62.62,0,0,1,.24.14.12.12,0,0,1,.06,0l.08,0v.08a9.83,9.83,0,0,1-.63,2,12.76,12.76,0,0,0-.51,1.41c.49.19,1.07.4,1.65.6s1.21.38,1.78.54c.19-.48.35-1,.53-1.4.27-.77.54-1.5.86-2.21a.33.33,0,0,1,.2-.15h.05l0,0,.13.11a.44.44,0,0,0,.14.1l.11,0,0,.13c-.58,1.48-1.21,3.38-1.82,5.21-.33,1-.63,1.93-.91,2.74l0,.07h-.08a.37.37,0,0,1-.21,0c-.32-.11-.3-.57-.21-.85l1-3.12c-1.05-.3-1.83-.53-2.6-.78l-.85-.29a23.29,23.29,0,0,0-.79,2.47l-.17.62a1.81,1.81,0,0,0,0,.22c-.06.26-.12.57-.31.67a.29.29,0,0,1-.26,0h0a.3.3,0,0,1-.17-.16c-.11-.23,0-.62.15-1A1.07,1.07,0,0,0,51.34,30.47Z" style="fill:#a69c90"/><path d="M62.14,26.56a.47.47,0,0,1,0-.36l0,0,.06,0a1.6,1.6,0,0,1,.89.09l.39.14.42.15c.61.2,1.35.47,1.87.69l.1,0,.36.11.43.12c.3.1.46.2.52.35a.33.33,0,0,1,0,.25c0,.09-.13.21-.39.2a2.15,2.15,0,0,1-.54-.12c-.3-.1-.61-.24-.88-.35l-.24-.11c-.22.63-.42,1.27-.62,2-.29,1-.6,2-1,3.09l-.13.27A5,5,0,0,0,63,34h0a2.86,2.86,0,0,0-.08.29c-.12.4-.25.86-.49,1a.31.31,0,0,1-.26,0,.69.69,0,0,1-.21-.13l0,0v-.06a5.66,5.66,0,0,1,.5-1.86l0-.09c.09-.27.19-.54.3-.82a42.83,42.83,0,0,0,1.59-4.87c-.2-.08-.46-.18-.78-.28L63.17,27,63,27l-.41-.11A.76.76,0,0,1,62.14,26.56Z" style="fill:#a69c90"/><path d="M66.44,35.47c.55-2.14,1.5-5,2.23-7l0-.06.06,0a.36.36,0,0,1,.22,0,.63.63,0,0,1,.24.14l.06,0,.08,0v.08a9.84,9.84,0,0,1-.63,2,12.8,12.8,0,0,0-.51,1.41c.49.19,1.07.4,1.65.6s1.21.38,1.78.54c.19-.48.35-1,.53-1.4.27-.77.54-1.5.86-2.21a.33.33,0,0,1,.2-.15h.05l0,0,.13.11a.44.44,0,0,0,.14.1l.11,0,0,.13c-.58,1.48-1.21,3.38-1.81,5.21-.33,1-.63,1.93-.91,2.74l0,.07h-.08a.36.36,0,0,1-.21,0c-.32-.11-.3-.57-.21-.85l1-3.12c-1.05-.3-1.83-.53-2.6-.78L68,32.82a23.34,23.34,0,0,0-.79,2.47L67,35.9a1.74,1.74,0,0,0,0,.22c-.06.26-.12.56-.31.67a.28.28,0,0,1-.26,0h0a.3.3,0,0,1-.17-.16c-.11-.23,0-.62.15-1A1.07,1.07,0,0,0,66.44,35.47Z" style="fill:#a69c90"/><path d="M72.27,38.43a6.88,6.88,0,0,1,.64-2.28c.59-1.79,1.36-4.06,2-5.84l0-.11,3.63,1.2.14,0,.17,0a.46.46,0,0,1,.31.24.34.34,0,0,1-.06.31l0,.05H79.1a8.19,8.19,0,0,1-2.52-.56c-.37-.11-.74-.23-1.12-.33-.17.52-.34,1-.54,1.5s-.37,1-.57,1.59c.54.24,1.15.46,1.75.66a13.58,13.58,0,0,1,1.78.68l.1,0,0,.1c-.16.49-.8.28-1,.21l-.23-.09-.16-.05c-.36-.12-.78-.28-1.22-.44s-.8-.32-1.19-.45c-.1.31-.21.61-.33.93-.25.7-.51,1.41-.74,2.27l.46.17c.35.12.71.21,1.06.31s.71.18,1.09.31a7.62,7.62,0,0,1,1,.4l.07,0v.08a.3.3,0,0,1-.13.26.82.82,0,0,1-.63,0,2.39,2.39,0,0,1-.45-.1L75,39.48l-.46-.18A11.84,11.84,0,0,1,73.22,39a3.61,3.61,0,0,1-.89-.43l-.05,0Z" style="fill:#a69c90"/><path d="M29.31,30.2a.58.58,0,0,1,.33,0,.29.29,0,0,1,.2.28,2.18,2.18,0,0,1,0,.35l0,.25a15.88,15.88,0,0,1-.23,2c-.08.35-.12.69-.16,1.06s-.07.61-.13.93-.1.68-.14,1c-.17,1.11-.31,2.16-.52,3.06v.07l-.07,0a.55.55,0,0,1-.29,0c-.48-.16-.29-1.06-.17-1.65,0-.08,0-.15,0-.21.3-1.62.6-3.62.81-5.23A20.32,20.32,0,0,1,26.5,35l0,0-.06,0-.06,0c-.4-.13-.48-.56-.55-.9,0-.06,0-.13,0-.19-.18-1.08-.3-2.32-.42-3.41v0a13.86,13.86,0,0,0-1,2.19c-.11.29-.22.58-.34.88s-.25.55-.36.83-.29.7-.51,1.11h0l-.16.33a7.3,7.3,0,0,1-.48.9c-.08.14-.36.55-.69.44a.53.53,0,0,1-.24-.19l0-.06,0-.07c.2-.42.42-.86.64-1.32.41-.81.81-1.65,1.19-2.52.16-.35.31-.72.45-1.06A16.29,16.29,0,0,1,25.23,29l0,0h.06l.18,0a.74.74,0,0,1,.45.48,2.27,2.27,0,0,1,.14.58,5.88,5.88,0,0,1,.11,1c0,.13,0,.23,0,.35.09.83.23,1.69.35,2.48a12.65,12.65,0,0,0,1.74-2.3c.38-.56.7-1.06.93-1.32l0,0Z" style="fill:#a69c90"/><path d="M31.21,34.27a6.72,6.72,0,0,1,1.33-1.62A3.4,3.4,0,0,1,33.72,32a2.57,2.57,0,0,1,1.56,0,3.93,3.93,0,0,1,1,.46,2.23,2.23,0,0,1,.7.71h0a4,4,0,0,1,.39,1,4.55,4.55,0,0,1,.13,1.17,5.28,5.28,0,0,1-.46,1.5c0,.11-.1.23-.14.33-.81,2-1.69,3.26-2.59,3.63a2.81,2.81,0,0,1-1.74,0l-.11,0a3.23,3.23,0,0,1-1.18-.68,2.9,2.9,0,0,1-.72-1,5,5,0,0,1-.23-2.7A6.5,6.5,0,0,1,31.21,34.27Zm-.1,4.15a2.42,2.42,0,0,0,1.57,1.75,2.65,2.65,0,0,0,.6.12,2,2,0,0,0,1.69-1A10.34,10.34,0,0,0,36.15,37c.07-.18.16-.35.22-.52a3.88,3.88,0,0,0,.39-1.17h0A3,3,0,0,0,36,33a1.88,1.88,0,0,0-.58-.31,3,3,0,0,0-1.27-.12,4.48,4.48,0,0,0-2.39,2.23A5.38,5.38,0,0,0,31.11,38.42Z" style="fill:#a69c90"/><path d="M37.7,39.84a24.16,24.16,0,0,1,1.42-5.57l.25-.76,0-.07h.08a.62.62,0,0,1,.28,0,.4.4,0,0,1,.25.21,1.29,1.29,0,0,1,0,.82,9.47,9.47,0,0,1-.31.94c-.06.16-.11.29-.15.42-.13.4-.25.75-.37,1.09a9.14,9.14,0,0,0-.65,2.88c0,.13,0,.26,0,.4a4.37,4.37,0,0,0,.06,1.47,1.54,1.54,0,0,0,.86.76,1,1,0,0,0,.34,0c.61,0,1.31-.75,1.73-1.46h0a18.69,18.69,0,0,0,2.22-5h0a2.63,2.63,0,0,0,.06-.26,1.07,1.07,0,0,1,.38-.77l0,0h0a.51.51,0,0,1,.4.3c.17.37-.09,1-.28,1.42l0,.15A31.07,31.07,0,0,1,42.46,41a4.57,4.57,0,0,1-1.77,2,2.12,2.12,0,0,1-1.6.07,2,2,0,0,1-1.33-1.26A6.77,6.77,0,0,1,37.69,40Z" style="fill:#a69c90"/><path d="M43.56,42.55c0-.22.11-.6.39-.72H44l.08,0a.42.42,0,0,1,.31.39,1.31,1.31,0,0,1-.09.42.75.75,0,0,0,0,.17h0a1.81,1.81,0,0,0,.17.93,2.5,2.5,0,0,0,1.22.7h0a2.27,2.27,0,0,0,2.44-.55,1.93,1.93,0,0,0,.29-2.14A3.33,3.33,0,0,0,47,40.64a3.53,3.53,0,0,1-1.31-1.07,2.39,2.39,0,0,1-.07-1.88,2.22,2.22,0,0,1,1.25-1.23,2.5,2.5,0,0,1,2.83.65c.15.16.61.67.31,1.06l-.06.08-.08-.05a2.21,2.21,0,0,1-.68-.59,1.38,1.38,0,0,0-.67-.53,2,2,0,0,0-.42-.08,1.6,1.6,0,0,0-1,.34,2.18,2.18,0,0,0-.76.91,1.12,1.12,0,0,0,.32,1.37,2.57,2.57,0,0,0,.7.4,3,3,0,0,1,.44.21,3.29,3.29,0,0,1,1.62,2.43,2.51,2.51,0,0,1-.93,2.21,2.38,2.38,0,0,1-1.43.5,4.47,4.47,0,0,1-1.71-.23,3,3,0,0,1-1.41-.9A2.52,2.52,0,0,1,43.56,42.55Z" style="fill:#a69c90"/><path d="M51.58,38.23a.46.46,0,0,1,0-.36l0,0,.06,0a1.6,1.6,0,0,1,.89.09L53,38l.42.15c.62.2,1.35.47,1.87.69l.1,0,.36.11.43.12c.3.1.46.2.52.35a.33.33,0,0,1,0,.25c0,.09-.13.21-.39.2a2.14,2.14,0,0,1-.54-.12c-.3-.1-.62-.24-.88-.36l-.24-.11c-.22.63-.42,1.27-.62,2-.29,1-.6,2-1,3.09l-.13.27a5,5,0,0,0-.36,1h0a2.86,2.86,0,0,0-.08.29c-.12.4-.25.87-.49,1a.3.3,0,0,1-.26,0,.7.7,0,0,1-.21-.13l0,0v-.06a5.66,5.66,0,0,1,.5-1.86l0-.09c.09-.27.19-.54.3-.82a42.92,42.92,0,0,0,1.59-4.87c-.2-.08-.46-.18-.78-.28l-.42-.14-.17,0L52,38.55A.76.76,0,0,1,51.58,38.23Z" style="fill:#a69c90"/><path d="M54.14,47.69c-.07-.21.09-.47.22-.66a1.3,1.3,0,0,0,.08-.13h0c.78-1.26,1.63-2.52,2.45-3.74.66-1,1.34-2,1.95-2.94l0,0,.06,0a.58.58,0,0,1,.27,0c.16.05.24.18.24.41a2.32,2.32,0,0,1-.06.52.93.93,0,0,0,0,.19c0,.73,0,1.46-.06,2.15,0,1.27-.07,2.47,0,3.59v0h0a3,3,0,0,0,.05,1,2.48,2.48,0,0,1-.07,1.18l0,0,0,0a.46.46,0,0,1-.33.05c-.27-.09-.26-.5-.25-.8a1,1,0,0,0,0-.22h0c0-.58,0-1.25-.09-1.91s-.07-1-.07-1.39a2.34,2.34,0,0,0-.49-.23,6.51,6.51,0,0,0-.68-.17l-.38-.09a15.91,15.91,0,0,0-1,1.45c-.25.36-.5.74-.79,1.14a2.5,2.5,0,0,1-.18.43c-.19.34-.37.37-.5.33A.32.32,0,0,1,54.14,47.69ZM57.63,44l.44.12.38.15c0-.15,0-.29,0-.44a9.13,9.13,0,0,0,.11-1.95,8.2,8.2,0,0,1-.68,1,10,10,0,0,0-.69,1Z" style="fill:#a69c90"/><path d="M60.64,46.18a9.53,9.53,0,0,1,.82-2,4.75,4.75,0,0,1,2.76-2.57h0a2.68,2.68,0,0,1,.54.13,3.1,3.1,0,0,1,1.23.76,1.41,1.41,0,0,1,.5,1.06l0,.12-.12,0a.69.69,0,0,1-.22,0,.67.67,0,0,1-.4-.41.83.83,0,0,0-.15-.25h0a1.38,1.38,0,0,0-.67-.49,1.12,1.12,0,0,0-1.07.19h0a4.56,4.56,0,0,0-2,2.28,7.46,7.46,0,0,0-.76,3.37,3.72,3.72,0,0,0,.77,1.49,1.41,1.41,0,0,0,.3.15,3,3,0,0,0,.86.1h.23l.17-.16c.3-.29.5-.48.69-.41s.23.13.25.25-.22.44-.56.69l-.17.13,0,0,0,0a2.94,2.94,0,0,1-1.68,0,1.43,1.43,0,0,1-.67-.42,4.28,4.28,0,0,1-.8-2h0A6.35,6.35,0,0,1,60.64,46.18Z" style="fill:#a69c90"/><path d="M65.6,50.36c.55-2.14,1.5-5,2.23-7l0-.06.06,0a.37.37,0,0,1,.22,0,.63.63,0,0,1,.24.14l.06,0,.08,0v.08a9.86,9.86,0,0,1-.63,2A12.56,12.56,0,0,0,67.36,47c.49.19,1.07.4,1.65.6s1.21.38,1.78.54c.19-.48.35-1,.53-1.4.27-.77.54-1.5.86-2.2a.33.33,0,0,1,.2-.15h.05l0,0,.13.11a.44.44,0,0,0,.14.1l.11,0,0,.13C72.24,46.22,71.61,48.12,71,50c-.33,1-.63,1.93-.91,2.74l0,.07H70a.36.36,0,0,1-.21,0c-.32-.11-.3-.57-.21-.85l1-3.12c-1.05-.3-1.83-.53-2.6-.78l-.85-.29a23.44,23.44,0,0,0-.79,2.47l-.17.61a1.81,1.81,0,0,0,0,.22c-.06.26-.12.57-.31.67a.28.28,0,0,1-.26,0h0a.3.3,0,0,1-.17-.16c-.11-.23,0-.62.15-1A1.09,1.09,0,0,0,65.6,50.36Z" style="fill:#a69c90"/><path d="M71.43,53.32A6.89,6.89,0,0,1,72.07,51c.59-1.79,1.36-4.06,2-5.84l0-.11,3.63,1.2.14,0,.17,0a.46.46,0,0,1,.31.24.34.34,0,0,1-.06.31l0,.05h-.06a8.18,8.18,0,0,1-2.52-.56c-.37-.11-.74-.23-1.12-.33-.17.52-.34,1-.54,1.5s-.37,1-.57,1.59c.54.24,1.15.46,1.75.66a13.6,13.6,0,0,1,1.78.68l.1,0,0,.1c-.16.49-.8.28-1,.21l-.24-.09-.16-.05c-.36-.12-.78-.28-1.22-.44s-.8-.32-1.19-.45c-.1.31-.21.61-.33.93-.25.7-.51,1.41-.74,2.27l.46.17c.35.12.71.21,1.06.31s.71.19,1.09.31a7.62,7.62,0,0,1,1,.4l.07,0v.08a.3.3,0,0,1-.12.26.82.82,0,0,1-.63,0,2.38,2.38,0,0,1-.45-.1l-.48-.18-.46-.18a11.87,11.87,0,0,1-1.37-.33,3.61,3.61,0,0,1-.89-.44l-.05,0Z" style="fill:#a69c90"/><path d="M11.56,40.23l-.48-.15-.51-.14c-.41-.14-.89-.36-.84-.86v-.14l.14,0a10.67,10.67,0,0,1,1.05.29c.4.13.79.29,1.2.45l1,.39h0l.14,0,.35.1.35.1c.32.11.68.28.72.68v.06l0,0a.49.49,0,0,1-.51.06l-.2-.08-.17-.07-.41-.12L13,40.81l-.29-.11c-.43,1.59-1.16,3.66-1.81,5.49-.15.43-.29.85-.44,1.24h0l-.08.23a1.09,1.09,0,0,1-.29.61l0,0h0a.56.56,0,0,1-.19,0,.29.29,0,0,1-.2-.17.73.73,0,0,1,.05-.54.43.43,0,0,0,0-.11c1-2.59,1.62-4.69,2.29-7A1.77,1.77,0,0,0,11.56,40.23Z" style="fill:#a69c90"/><path d="M13.74,49.06a3.71,3.71,0,0,1-.61-1.71,6.56,6.56,0,0,1,.42-2.73A6.3,6.3,0,0,1,15,42.33a3.19,3.19,0,0,1,2.54-1h.06l0,0,.3.08a2.94,2.94,0,0,1,.76.35A3.59,3.59,0,0,1,19.76,43a4.14,4.14,0,0,1,.57,1.53A3.23,3.23,0,0,1,20.17,46a7.22,7.22,0,0,1-.75,1.53c-1,1.58-1.84,2.47-2.71,2.72a2.78,2.78,0,0,1-1.53,0A2.83,2.83,0,0,1,13.74,49.06Zm1.08.33.24.09a2.69,2.69,0,0,0,1.65,0,5.27,5.27,0,0,0,2-2.25,8,8,0,0,0,.85-1.73,3.38,3.38,0,0,0-.38-2.13,2.06,2.06,0,0,0-1.32-1.17,3.45,3.45,0,0,0-.47-.12,2.7,2.7,0,0,0-1.92.92,6.31,6.31,0,0,0-1.62,4.33,3.59,3.59,0,0,0,.3,1.19A2,2,0,0,0,14.82,49.39Z" style="fill:#a69c90"/><path d="M23.05,51a8.21,8.21,0,0,1,.71-3.41,7.27,7.27,0,0,1,1.07-1.84,2.76,2.76,0,0,1,1.57-1,3.36,3.36,0,0,1,1.56.13,2.23,2.23,0,0,1,.92.54c.18.19.53.57.31,1l0,.09-.09,0-.08,0a.74.74,0,0,1-.48-.46,1.38,1.38,0,0,0-.14-.22,1.52,1.52,0,0,0-.44-.22,2.58,2.58,0,0,0-1.1-.1A2.9,2.9,0,0,0,25,47a7.85,7.85,0,0,0-1,2.47,4.5,4.5,0,0,0,0,2.28,1.65,1.65,0,0,0,1,1,1.6,1.6,0,0,0,1.1,0,1.51,1.51,0,0,0,.52-.42,2.73,2.73,0,0,1,.47-.41l.08-.06.06.07a.6.6,0,0,1,.22.56c-.11.52-.93.87-1,.88a2.53,2.53,0,0,1-1.71.08l-.18-.06A2.59,2.59,0,0,1,23.05,51Z" style="fill:#a69c90"/><path d="M29.27,54.2a3.7,3.7,0,0,1-.61-1.71,6.55,6.55,0,0,1,.42-2.73,6.29,6.29,0,0,1,1.44-2.29,3.19,3.19,0,0,1,2.54-1h.06l0,0,.3.08a3,3,0,0,1,.76.35,3.59,3.59,0,0,1,1.07,1.19,4.14,4.14,0,0,1,.57,1.53,3.23,3.23,0,0,1-.16,1.48,7.24,7.24,0,0,1-.75,1.53c-1,1.58-1.84,2.47-2.71,2.72a2.78,2.78,0,0,1-1.53,0A2.83,2.83,0,0,1,29.27,54.2Zm1.08.33.24.09a2.69,2.69,0,0,0,1.65,0,5.27,5.27,0,0,0,2-2.25,8,8,0,0,0,.85-1.73,3.38,3.38,0,0,0-.38-2.13A2.06,2.06,0,0,0,33.4,47.3a3.58,3.58,0,0,0-.47-.12A2.7,2.7,0,0,0,31,48.1a6.31,6.31,0,0,0-1.62,4.33,3.62,3.62,0,0,0,.3,1.19A1.94,1.94,0,0,0,30.35,54.53Z" style="fill:#a69c90"/><path d="M41.8,49.45a.55.55,0,0,1,.27,0,.49.49,0,0,1,.29.26l0,0v0c-.29,1.15-.7,2.49-1.06,3.79-.43,1.55-.93,3.15-1.22,4.53v.08H40a.62.62,0,0,1-.31,0c-.33-.11-.36-.54-.4-.81v0c-.05-.45-.08-.94-.11-1.45A14.29,14.29,0,0,0,39,53.8c-.28-1.52-.52-3-.81-4.06-.48,1.17-1.77,4.44-2.37,6-.16.44-.31.76-.34.85l0,.08h-.09a1.14,1.14,0,0,1-.39-.05.56.56,0,0,1-.18-.1l-.06-.06,0-.08c.4-1.09.87-2.31,1.4-3.64.43-1.07.85-2.13,1.23-3.18.14-.39.29-.76.43-1.13l0-.09h.09l.19,0c.49.16.69.78.8,1.16a39.72,39.72,0,0,1,1,6.61c.29-.92.66-2.51.93-3.58s.59-2.2.88-3.07l0-.07Z" style="fill:#a69c90"/><path d="M44.85,51.27l-.48-.15L43.86,51c-.41-.14-.89-.36-.84-.86V50l.14,0a10.57,10.57,0,0,1,1.05.29c.4.13.79.29,1.2.45l1,.39h0l.14,0,.35.1.35.1c.32.11.68.28.72.68v.06l0,0a.49.49,0,0,1-.51.06l-.2-.08-.17-.07L46.68,52l-.39-.12L46,51.74c-.43,1.59-1.16,3.66-1.81,5.49-.15.43-.29.85-.44,1.24h0l-.08.23a1.09,1.09,0,0,1-.29.61l0,0h0a.55.55,0,0,1-.19,0,.29.29,0,0,1-.2-.17A.73.73,0,0,1,43,58.6a.43.43,0,0,0,0-.11c1-2.59,1.62-4.69,2.29-7A1.76,1.76,0,0,0,44.85,51.27Z" style="fill:#a69c90"/><path d="M47.57,58.25c-.33.49-.65,1-1,1.43l-.07.09c-.14.21-.36.51-.66.41a.45.45,0,0,1-.21-.16l0-.05,0-.06a1.56,1.56,0,0,1,.4-.61c.08-.1.17-.2.24-.3.47-.69.93-1.41,1.37-2.11.75-1.17,1.52-2.38,2.4-3.51a5.4,5.4,0,0,1,.73-.82l0,0h0a.42.42,0,0,1,.25,0c.36.12.3.76.26,1.19v0c-.06.64-.19,1.37-.32,2.07-.09.46-.17.9-.23,1.26,0,0,0,0,.06.09a.45.45,0,0,1,.11.19v0a.28.28,0,0,1-.2.21h0a0,0,0,0,0,0,0c-.07.91-.12,1.93-.12,3,0,0,0,.1,0,.16a1.4,1.4,0,0,1-.13.83l0,0-.06,0a.71.71,0,0,1-.22,0l-.17-.08-.11,0-.06,0v-.08c0-1.48.07-2.8.16-4l-.36-.13a6.78,6.78,0,0,0-1.19-.27C48.13,57.41,47.86,57.81,47.57,58.25Zm1.52-1.72c.29.08.59.16.9.26.19-.92.38-1.87.47-2.76-.4.51-.78,1.08-1.15,1.63-.17.26-.35.53-.54.79Z" style="fill:#a69c90"/><path d="M51.63,60.49a8.19,8.19,0,0,1,.71-3.41,7.27,7.27,0,0,1,1.07-1.85,2.77,2.77,0,0,1,1.57-1,3.36,3.36,0,0,1,1.56.13,2.22,2.22,0,0,1,.92.54c.18.19.53.57.31,1l0,.09-.09,0-.08,0a.74.74,0,0,1-.48-.46,1.4,1.4,0,0,0-.14-.22A1.5,1.5,0,0,0,56.5,55a2.59,2.59,0,0,0-1.1-.1,2.9,2.9,0,0,0-1.84,1.5,7.84,7.84,0,0,0-1,2.47,4.5,4.5,0,0,0,0,2.28,1.65,1.65,0,0,0,1,1,1.6,1.6,0,0,0,1.1,0,1.53,1.53,0,0,0,.52-.42,2.67,2.67,0,0,1,.47-.41l.08-.06.06.07a.6.6,0,0,1,.22.56c-.11.52-.93.87-1,.88a2.53,2.53,0,0,1-1.71.08l-.18-.06A2.59,2.59,0,0,1,51.63,60.49Z" style="fill:#a69c90"/><path d="M60.41,56.42l-.48-.15-.51-.14c-.41-.14-.89-.36-.84-.86v-.14l.14,0a10.53,10.53,0,0,1,1.05.29c.4.13.79.29,1.2.45l1,.39h0l.14,0,.35.1.35.1c.32.11.68.28.72.68v.06l0,0a.49.49,0,0,1-.51.06l-.2-.08-.17-.07-.41-.12L61.85,57l-.29-.11c-.43,1.59-1.16,3.66-1.81,5.49-.15.43-.29.85-.44,1.24h0l-.08.23a1.08,1.08,0,0,1-.29.61l0,0h0a.57.57,0,0,1-.19,0,.29.29,0,0,1-.2-.17.72.72,0,0,1,.05-.54.44.44,0,0,0,0-.11c1-2.59,1.62-4.69,2.29-7A1.78,1.78,0,0,0,60.41,56.42Z" style="fill:#a69c90"/><path d="M72.69,59.75a.58.58,0,0,1,.33,0,.29.29,0,0,1,.2.28,2.24,2.24,0,0,1,0,.35l0,.25a15.79,15.79,0,0,1-.23,2c-.08.35-.12.69-.16,1.06s-.07.61-.13.93-.1.67-.14,1c-.17,1.11-.31,2.16-.52,3.06v.07l-.07,0a.54.54,0,0,1-.29,0c-.48-.16-.29-1.06-.17-1.65,0-.08,0-.15,0-.21.3-1.62.6-3.62.81-5.23a20.32,20.32,0,0,1-2.37,2.8l0,0-.06,0-.06,0c-.4-.13-.48-.56-.55-.9,0-.06,0-.13,0-.19-.18-1.08-.3-2.32-.42-3.41v0a13.75,13.75,0,0,0-1,2.19c-.11.29-.22.58-.34.88s-.25.55-.36.83-.29.7-.51,1.11h0l-.16.33a7.27,7.27,0,0,1-.48.9c-.08.14-.36.55-.69.44a.53.53,0,0,1-.24-.19l0-.06,0-.07c.2-.43.42-.86.64-1.32.41-.81.81-1.65,1.19-2.52.16-.35.31-.72.45-1.06a16.31,16.31,0,0,1,1.39-2.9l0,0h.06l.18,0a.74.74,0,0,1,.45.48,2.27,2.27,0,0,1,.14.58,5.92,5.92,0,0,1,.11,1c0,.13,0,.23,0,.35.09.83.23,1.69.35,2.48a12.6,12.6,0,0,0,1.74-2.31c.38-.56.7-1.06.93-1.32l0,0Z" style="fill:#a69c90"/><path d="M79.37,61.73l.34.09a.61.61,0,0,1,.39.28.31.31,0,0,1,0,.29v0l0,0a.8.8,0,0,1-.71,0l-.17-.07-.14,0-.58-.17a12.54,12.54,0,0,0-2.15-.53c-.34,1-.71,2.15-1.14,3.32.45.2.88.35,1.27.48l.83.25.34.06a3.72,3.72,0,0,1,.49.1.67.67,0,0,1,.48.49l0,.08-.09,0a1.27,1.27,0,0,1-.86,0l-.24-.07a18.16,18.16,0,0,1-1.79-.5L75,65.64l-.37.89c-.35.83-.65,1.55-1,2.44a5.37,5.37,0,0,0,.6.24c.36.12.75.21,1.12.31s.74.17,1.08.28a2.26,2.26,0,0,1,1.05.6l.06.08-.07.06a.51.51,0,0,1-.62.16,2.4,2.4,0,0,1-.37-.17,1.76,1.76,0,0,0-.32-.14c-.33-.11-.68-.2-1.07-.29s-.8-.2-1.19-.33a3.92,3.92,0,0,1-1-.48l-.06,0,0-.08c.38-1.3.9-2.68,1.4-4s1.08-2.88,1.43-4.17l0-.09h.09a7.45,7.45,0,0,1,2.42.51l.93.28h0Z" style="fill:#a69c90"/><path d="M79.89,70.86c0,.12,0,.32-.33.46l0,0,0,0c-.4-.13-.6-.4-.51-.69a.39.39,0,0,1,.53-.27A.59.59,0,0,1,79.89,70.86ZM82.29,64a2.4,2.4,0,0,0-.13.4,2.45,2.45,0,0,1-.16.49c-.08.19-.17.4-.25.61-.23.53-.46,1.08-.64,1.63-.08.25-.15.49-.23.74a6.33,6.33,0,0,1-.85,2L80,70H79.9l-.12,0a.71.71,0,0,1-.36-.28l0,0,0-.05,0-.06c.29-.74.57-1.54.87-2.4A33.26,33.26,0,0,1,81.86,63v0h0a.38.38,0,0,1,.35,0,.52.52,0,0,1,.3.3c.06.19-.06.4-.17.6Z" style="fill:#a69c90"/><path d="M72,81.1,8.68,59.84a12,12,0,0,1-7.56-15.2l12.07-36a12,12,0,0,1,15.2-7.56L91.71,22.38a12,12,0,0,1,7.56,15.19l-12.07,36A12,12,0,0,1,72,81.1Z" style="fill:none;stroke:#a69c90;stroke-dasharray:10.47057056427002,2.094114065170288,5.23528528213501,10.47057056427002,2.094114065170288,5.23528528213501"/></g></g></svg>